<svg xmlns="http://www.w3.org/2000/svg" viewBox="0 0 576 720"><path fill="#262828" d="M426.7 594.7h-275c-4.7 0-8.7-3.9-8.7-8.7V133.6c0-4.8 3.9-8.7 8.7-8.7h275.1c4.8 0 8.7 3.9 8.7 8.7V586c-.2 4.8-4 8.7-8.8 8.7z"/><path fill="#1D1E1E" d="M430.1 594.7H148c-2.9 0-5-2.3-5-5v-152c0-2.9 2.3-5 5-5h282.3c2.9 0 5 2.3 5 5v152c0 2.6-2.3 5-5.2 5z"/><g fill="#99613A"><path d="M441.8 600h-11.6c-3.6 0-6.5-2.9-6.5-6.6v-467c0-3.6 3-6.5 6.5-6.5h11.6c3.6 0 6.5 2.9 6.5 6.5v467c0 3.6-3 6.6-6.5 6.6zM146 600h-11.6c-3.6 0-6.6-2.9-6.6-6.6v-467c0-3.6 2.9-6.5 6.6-6.5H146c3.6 0 6.6 2.9 6.6 6.5v467c-.2 3.6-3.1 6.6-6.6 6.6z"/></g><path fill="none" stroke="#FFF" stroke-miterlimit="10" d="M396.1 431.7h-68.5c-4.7 0-8.7-3.9-8.7-8.7V172.3c0-4.8 3.9-8.6 8.7-8.6h68.5c4.8 0 8.7 3.9 8.7 8.6v250.8c-.1 4.7-4 8.6-8.7 8.6z"/><path fill="#FFF" d="M318.9 182.9v-10.6c0-4.8 3.9-8.6 8.7-8.6h68.5c4.8 0 8.7 3.9 8.7 8.6v10.6h-85.9z"/><g><path fill="none" stroke="#FFF" stroke-miterlimit="10" d="M249.1 431.7h-68.4c-4.7 0-8.7-3.9-8.7-8.7V172.3c0-4.8 3.9-8.6 8.7-8.6h68.5c4.7 0 8.7 3.9 8.7 8.6v250.8c0 4.7-3.9 8.6-8.8 8.6z"/><path fill="#FFF" d="M172.1 182.9v-10.6c0-4.8 3.9-8.6 8.7-8.6h68.5c4.7 0 8.7 3.9 8.7 8.6v10.6h-85.9z"/></g><g><circle fill="#E13C67" cx="288" cy="358" r="5.3"/><circle fill="#CEB838" cx="288" cy="306.1" r="5.3"/><circle fill="#3EDD58" cx="288" cy="410" r="5.3"/><g fill="#FFF"><path opacity=".26" d="M288 405.5c2.6 0 4.8 2.1 4.8 4.8 0 2.6-2.1.3-4.8.3s-4.8 2.3-4.8-.3c0-2.7 2.2-4.8 4.8-4.8zM288 353.4c2.6 0 4.8 2.1 4.8 4.8 0 2.6-2.1.3-4.8.3s-4.8 2.3-4.8-.3c0-2.7 2.2-4.8 4.8-4.8zM288 301.5c2.6 0 4.8 2.1 4.8 4.8 0 2.6-2.1.3-4.8.3s-4.8 2.3-4.8-.3c0-2.7 2.2-4.8 4.8-4.8z"/></g></g><g><circle fill="#B3B3B3" cx="288" cy="518.5" r="17.9"/><path opacity=".26" fill="#FFF" d="M288 503.6c8.5 0 15.3 6.9 15.3 15.3 0 8.5-6.9-3.5-15.3-3.5s-15.3 12-15.3 3.5c0-8.4 6.8-15.3 15.3-15.3z"/><circle fill="#E6E6E6" cx="288" cy="518.5" r="8.8"/><g><path fill="#EA3232" d="M383.7 316h-44.4c-.8 0-1.4-.6-1.4-1.4v-17.4c0-.8.7-1.4 1.4-1.4h44.4c.8 0 1.4.6 1.4 1.4v17.4c.1.9-.6 1.4-1.4 1.4z"/><path fill="#F93D3D" d="M383.1 316h-22.6l.3-20.3h22.3c.8 0 1.4.6 1.4 1.4v17.4c0 1-.6 1.5-1.4 1.5z"/></g><g><path fill="#F93D3D" d="M236.8 316h-44.4c-.8 0-1.4-.6-1.4-1.4v-17.4c0-.8.6-1.4 1.4-1.4h44.4c.8 0 1.4.6 1.4 1.4v17.4c0 .9-.7 1.4-1.4 1.4z"/><path fill="#EA3232" d="M236.2 316h-22.6l.3-20.3h22.2c.8 0 1.4.6 1.4 1.4v17.4c0 1-.6 1.5-1.3 1.5z"/></g></g><g><circle fill="#1A1A1A" cx="361.4" cy="390.1" r="28.2"/><path fill="#262828" d="M380.2 407.3s-1.6-5.3-.7-6.8c.8-1.5 6.2-2.7 6.2-2.7.7-2.4 1.1-4.9 1.1-7.5 0-2.5-.4-5-1.1-7.3 0 0-5.4-1.3-6.3-2.8-.9-1.5.8-7 .8-7-3.3-3.6-7.5-6.3-12.4-7.5 0 0-4.1 4.3-5.9 4.3-1.9 0-6.2-4.5-6.2-4.5-4.7 1.1-8.9 3.5-12.3 6.8 0 0 1.8 6.1.9 7.8-1 1.7-7.3 3.2-7.3 3.2-.6 2.2-.9 4.5-.9 6.8 0 2.4.4 4.8 1 7 0 0 6.3 1.5 7.3 3.2 1 1.7-.8 7.7-.8 7.7 3.3 3.4 7.6 5.8 12.4 6.8 0 0 4.1-4.4 6-4.4 1.8 0 5.7 4.2 5.7 4.2 4.8-1 9.2-3.7 12.5-7.3z"/><circle fill="#E6E6E6" cx="361.6" cy="390.1" r="16.5"/><circle fill="#1A1A1A" cx="214.6" cy="389.9" r="28.2"/><path fill="#262828" d="M233.3 406.9s-1.6-5.3-.7-6.8c.8-1.5 6.2-2.7 6.2-2.7.7-2.4 1.1-4.9 1.1-7.5 0-2.5-.4-5-1.1-7.3 0 0-5.4-1.3-6.3-2.8-.9-1.5.8-7 .8-7-3.3-3.6-7.5-6.3-12.4-7.5 0 0-4.1 4.3-5.9 4.3-1.9 0-6.2-4.5-6.2-4.5-4.7 1.1-8.9 3.5-12.3 6.8 0 0 1.8 6.1.9 7.8-1 1.7-7.3 3.2-7.3 3.2-.6 2.2-.9 4.5-.9 6.8 0 2.4.4 4.8 1 7 0 0 6.3 1.5 7.3 3.2 1 1.7-.8 7.7-.8 7.7 3.3 3.4 7.6 5.8 12.4 6.8 0 0 4.1-4.4 6-4.4 1.8 0 5.7 4.2 5.7 4.2 4.8-1 9.2-3.6 12.5-7.3z"/><circle fill="#E6E6E6" cx="214.5" cy="389.9" r="16.5"/><g><circle fill="#1A1A1A" cx="361.4" cy="221.7" r="28.2"/><path fill="#262828" d="M379.8 238.7s-1.6-5.3-.7-6.8c.8-1.5 6.2-2.7 6.2-2.7.7-2.4 1.1-4.9 1.1-7.5 0-2.5-.4-5-1.1-7.3 0 0-5.4-1.3-6.3-2.8-.9-1.5.8-7 .8-7-3.3-3.6-7.5-6.3-12.4-7.5 0 0-4.1 4.3-5.9 4.3-1.9 0-6.2-4.5-6.2-4.5-4.7 1.1-8.9 3.5-12.3 6.8 0 0 1.8 6.1.9 7.8-1 1.7-7.3 3.2-7.3 3.2-.6 2.2-.9 4.5-.9 6.8 0 2.4.4 4.8 1 7 0 0 6.3 1.5 7.3 3.2 1 1.7-.8 7.7-.8 7.7 3.3 3.4 7.6 5.8 12.4 6.8 0 0 4.1-4.4 6-4.4 1.8 0 5.7 4.2 5.7 4.2 4.9-1 9.2-3.7 12.5-7.3z"/><circle fill="#E6E6E6" cx="361.6" cy="221.7" r="16.4"/></g><g><circle fill="#1A1A1A" cx="288.7" cy="221.7" r="20.3"/><path fill="#262828" d="M302 233.8s-1.1-3.8-.5-4.8c.6-1 4.4-1.9 4.4-1.9.5-1.7.8-3.5.8-5.3 0-1.8-.3-3.5-.8-5.2 0 0-3.8-.9-4.4-2-.6-1.1.5-5 .5-5-2.3-2.6-5.4-4.4-8.8-5.3 0 0-2.9 3.1-4.2 3.1-1.4 0-4.4-3.2-4.4-3.2-3.4.8-6.4 2.5-8.7 4.8 0 0 1.3 4.4.6 5.6-.7 1.2-5.2 2.3-5.2 2.3-.4 1.5-.7 3.2-.7 4.8 0 1.7.3 3.4.7 5 0 0 4.4 1.1 5.1 2.3.7 1.2-.6 5.5-.6 5.5 2.4 2.4 5.4 4.1 8.8 4.8 0 0 2.9-3.1 4.2-3.1 1.3 0 4.1 3 4.1 3 3.7-.9 6.7-2.8 9.1-5.4z"/><circle fill="#E6E6E6" cx="288.7" cy="221.7" r="11.7"/></g><g><circle fill="#1A1A1A" cx="214.6" cy="221.7" r="28.2"/><path fill="#262828" d="M233.9 238.8s-1.6-5.3-.7-6.8c.8-1.5 6.2-2.7 6.2-2.7.7-2.4 1.1-4.9 1.1-7.5 0-2.5-.4-5-1.1-7.3 0 0-5.4-1.3-6.3-2.8-.9-1.5.8-7 .8-7-3.3-3.6-7.5-6.3-12.4-7.5 0 0-4.1 4.3-5.9 4.3-1.9 0-6.2-4.5-6.2-4.5-4.7 1.1-8.9 3.5-12.3 6.8 0 0 1.8 6.1.9 7.8-1 1.7-7.3 3.2-7.3 3.2-.6 2.2-.9 4.5-.9 6.8 0 2.4.4 4.8 1 7 0 0 6.3 1.5 7.3 3.2 1 1.7-.8 7.7-.8 7.7 3.3 3.4 7.6 5.8 12.4 6.8 0 0 4.1-4.4 6-4.4 1.8 0 5.7 4.2 5.7 4.2 4.8-1 9.2-3.7 12.5-7.3z"/><circle fill="#E6E6E6" cx="214.5" cy="221.7" r="16.4"/></g><g><path fill="#FFF" d="M288.7 221.8H277c0 6.5 5.2 11.7 11.7 11.7v-11.7zm0 0h11.7c0-6.5-5.2-11.7-11.7-11.7v11.7zM214.5 221.8h-16.4c0 9.1 7.3 16.4 16.4 16.4v-16.4zm0 0h16.4c0-9.1-7.3-16.4-16.4-16.4v16.4zM361.4 221.8H345c0 9.1 7.3 16.4 16.4 16.4v-16.4zm0 0h16.4c0-9.1-7.3-16.4-16.4-16.4v16.4zM361.6 390.2h-16.4c0 9.1 7.3 16.4 16.4 16.4v-16.4zm0 0H378c0-9.1-7.3-16.4-16.4-16.4v16.4zM214.5 390h-16.4c0 9.1 7.3 16.4 16.4 16.4V390zm0 0h16.4c0-9.1-7.3-16.4-16.4-16.4V390z" opacity=".5"/></g></g></svg>