
<svg version="1.1" id="Layer_1" xmlns="http://www.w3.org/2000/svg" xmlns:xlink="http://www.w3.org/1999/xlink" x="0px" y="0px"
	 viewBox="0 0 576 720" enable-background="new 0 0 576 720" xml:space="preserve">
<g>
	<g>
		<g>
			<path fill="#262828" d="M426.7,594.7h-275c-4.7,0-8.7-3.9-8.7-8.7V133.6c0-4.8,3.9-8.7,8.7-8.7h275.1c4.8,0,8.7,3.9,8.7,8.7
				v452.4C435.4,590.8,431.5,594.7,426.7,594.7L426.7,594.7z"/>
			<path fill="#1D1E1E" d="M430.3,594.7H147.9c-2.9,0-5-2.3-5-5V437.7c0-2.9,2.3-5,5-5h282.3c2.9,0,5,2.3,5,5v152
				C435.4,592.3,433.1,594.7,430.3,594.7z"/>
		</g>
		<g>
			<path fill="#99613A" d="M146,600h-11.6c-3.6,0-6.6-2.9-6.6-6.6v-467c0-3.6,3-6.5,6.6-6.5H146c3.6,0,6.6,2.9,6.6,6.5v467
				C152.4,597,149.6,600,146,600z"/>
			<path fill="#99613A" d="M441.8,600h-11.6c-3.6,0-6.5-2.9-6.5-6.6v-467c0-3.6,2.9-6.5,6.5-6.5h11.6c3.6,0,6.5,2.9,6.5,6.5v467
				C448.3,597,445.3,600,441.8,600z"/>
		</g>
		<g>
			<g>
				<path fill="none" stroke="#FFFFFF" stroke-miterlimit="10" d="M175.2,432.6h225.7c4.8,0,8.7-3.9,8.7-8.7v-58
					c0-4.7-3.9-8.7-8.7-8.7H175.2c-4.7,0-8.7,3.9-8.7,8.7v58.1C166.4,428.7,170.3,432.6,175.2,432.6L175.2,432.6z"/>
				<path fill="#FFFFFF" d="M175.2,432.6h7.8v-75.5h-7.8c-4.7,0-8.7,3.9-8.7,8.7v58.1C166.4,428.7,170.3,432.6,175.2,432.6z"/>
			</g>
			<g>
				<path fill="none" stroke="#FFFFFF" stroke-miterlimit="10" d="M400.8,263.9h-61.3c-4.9,0-7.2-0.4-7.2-6.6v-87.9
					c0-4.8-3.9-8.2-8.7-8.2h-68.5c-4.7,0-8.8,3.5-8.8,8.2V257c0,5.6-2.1,6.6-7.2,6.6h-63.8c-4.7,0-8.5,4-8.5,8.7v75.5
					c0,4.7,3.7,8.9,8.5,8.9h225.7c4.8,0,8.8-4.2,8.8-8.9v-75.3C409.7,267.9,405.7,263.9,400.8,263.9L400.8,263.9z"/>
				<path fill="#FFFFFF" d="M245.6,169.8v7.8h86.3v-7.8c0-4.8-3.9-8.6-8.7-8.6h-68.9C249.5,161.1,245.6,165,245.6,169.8L245.6,169.8
					z"/>
			</g>
		</g>
	</g>
	<g>
		<g>
			<path fill="#1A1A1A" d="M380.8,370.1h6v59.2h-6V370.1z"/>
			<path fill="#1A1A1A" d="M353.3,370.1h6v59.2h-6V370.1z"/>
			<path fill="#1A1A1A" d="M325.8,370.1h6v59.2h-6V370.1z"/>
			<path fill="#1A1A1A" d="M298.3,370.1h6v59.2h-6V370.1z"/>
			<path fill="#1A1A1A" d="M271.6,370.1h6v59.2h-6V370.1z"/>
			<path fill="#1A1A1A" d="M243.4,370.1h6v59.2h-6V370.1z"/>
			<path fill="#1A1A1A" d="M216.7,370.1h6v59.2h-6V370.1z"/>
			<path fill="#1A1A1A" d="M189.1,370.1h6v59.2h-6V370.1z"/>
		</g>
		<g>
			<circle fill="#E6E6E6" cx="383.8" cy="412.1" r="8.2"/>
			<circle fill="#E6E6E6" cx="357.1" cy="400.6" r="8.2"/>
			<circle fill="#E6E6E6" cx="328.9" cy="386.9" r="8.2"/>
			<circle fill="#E6E6E6" cx="301.4" cy="394.1" r="8.2"/>
			<circle fill="#E6E6E6" cx="274.7" cy="382.5" r="8.2"/>
			<circle fill="#E6E6E6" cx="246.4" cy="390.5" r="8.2"/>
			<circle fill="#E6E6E6" cx="219.7" cy="402" r="8.2"/>
			<circle fill="#E6E6E6" cx="192.2" cy="392.6" r="8.2"/>
		</g>
	</g>
	<g>
		<g>
			<circle fill="#B3B3B3" cx="288" cy="518.5" r="17.9"/>
			<path opacity="0.26" fill="#FFFFFF" d="M288,503.6c8.5,0,15.3,6.9,15.3,15.3c0,8.5-6.9-3.5-15.3-3.5s-15.3,12-15.3,3.5
				C272.7,510.5,279.5,503.6,288,503.6z"/>
			<circle fill="#E6E6E6" cx="288" cy="518.5" r="8.8"/>
		</g>
		<g>
			<path fill="#E6E6E6" d="M276.6,267.6h22.9v12.8h-22.9V267.6z"/>
			<path fill="#444C4F" d="M278.3,269.9h17.5v8.8h-17.5V269.9z"/>
			<path fill="#1A1A1A" d="M278.3,268.7h10.3v10.2h-10.3V268.7z"/>
		</g>
	</g>
	<g>
		<g>
			<circle fill="#1A1A1A" cx="368.5" cy="221.8" r="28.2"/>
			<g>
				<path fill="#262828" d="M387.5,238.8c0,0-1.6-5.3-0.7-6.8c0.8-1.5,6.2-2.7,6.2-2.7c0.7-2.4,1.1-4.9,1.1-7.5c0-2.5-0.4-5-1.1-7.3
					c0,0-5.4-1.3-6.3-2.8c-0.9-1.5,0.8-7,0.8-7c-3.3-3.6-7.5-6.3-12.4-7.5c0,0-4.1,4.3-5.9,4.3c-1.9,0-6.2-4.5-6.2-4.5
					c-4.7,1.1-8.9,3.5-12.3,6.8c0,0,1.8,6.1,0.9,7.8c-1,1.7-7.3,3.2-7.3,3.2c-0.6,2.2-0.9,4.5-0.9,6.8c0,2.4,0.4,4.8,1,7
					c0,0,6.3,1.5,7.3,3.2c1,1.7-0.8,7.7-0.8,7.7c3.3,3.4,7.6,5.8,12.4,6.8c0,0,4.1-4.4,6-4.4c1.8,0,5.7,4.2,5.7,4.2
					C379.9,245.1,384.2,242.5,387.5,238.8z"/>
			</g>
			<circle fill="#E6E6E6" cx="368.7" cy="221.8" r="16.4"/>
		</g>
		<g>
			<circle fill="#1A1A1A" cx="288.1" cy="221.8" r="20.3"/>
			<g>
				<path fill="#262828" d="M301.2,233.9c0,0-1.1-3.8-0.5-4.8c0.6-1,4.4-1.9,4.4-1.9c0.5-1.7,0.8-3.5,0.8-5.3c0-1.8-0.3-3.5-0.8-5.2
					c0,0-3.8-0.9-4.4-2c-0.6-1.1,0.5-5,0.5-5c-2.3-2.6-5.4-4.4-8.8-5.3c0,0-2.9,3.1-4.2,3.1c-1.4,0-4.4-3.2-4.4-3.2
					c-3.4,0.8-6.4,2.5-8.7,4.8c0,0,1.3,4.4,0.6,5.6c-0.7,1.2-5.2,2.3-5.2,2.3c-0.4,1.5-0.7,3.2-0.7,4.8c0,1.7,0.3,3.4,0.7,5
					c0,0,4.4,1.1,5.1,2.3c0.7,1.2-0.6,5.5-0.6,5.5c2.4,2.4,5.4,4.1,8.8,4.8c0,0,2.9-3.1,4.2-3.1c1.3,0,4.1,3,4.1,3
					C295.7,238.4,298.8,236.5,301.2,233.9z"/>
			</g>
			<circle fill="#E6E6E6" cx="288.1" cy="221.8" r="11.7"/>
		</g>
		<g>
			<circle fill="#1A1A1A" cx="207.5" cy="221.8" r="28.2"/>
			<g>
				<path fill="#262828" d="M225.9,238.8c0,0-1.6-5.3-0.7-6.8c0.8-1.5,6.2-2.7,6.2-2.7c0.7-2.4,1.1-4.9,1.1-7.5c0-2.5-0.4-5-1.1-7.3
					c0,0-5.4-1.3-6.3-2.8c-0.9-1.5,0.8-7,0.8-7c-3.3-3.6-7.5-6.3-12.4-7.5c0,0-4.1,4.3-5.9,4.3c-1.9,0-6.2-4.5-6.2-4.5
					c-4.7,1.1-8.9,3.5-12.3,6.8c0,0,1.8,6.1,0.9,7.8c-1,1.7-7.3,3.2-7.3,3.2c-0.6,2.2-0.9,4.5-0.9,6.8c0,2.4,0.4,4.8,1,7
					c0,0,6.3,1.5,7.3,3.2c1,1.7-0.8,7.7-0.8,7.7c3.3,3.4,7.6,5.8,12.4,6.8c0,0,4.1-4.4,6-4.4c1.8,0,5.7,4.2,5.7,4.2
					C218.3,245.1,222.6,242.5,225.9,238.8z"/>
			</g>
			<circle fill="#E6E6E6" cx="207.2" cy="221.8" r="16.4"/>
		</g>
		<g>
			<circle fill="#1A1A1A" cx="369.1" cy="312.7" r="20.3"/>
			<g>
				<path fill="#262828" d="M382.4,324.8c0,0-1.1-3.8-0.5-4.8c0.6-1,4.4-1.9,4.4-1.9c0.5-1.7,0.8-3.5,0.8-5.3c0-1.8-0.3-3.5-0.8-5.2
					c0,0-3.8-0.9-4.4-2c-0.6-1.1,0.5-5,0.5-5c-2.3-2.6-5.4-4.4-8.8-5.3c0,0-2.9,3.1-4.2,3.1c-1.4,0-4.4-3.2-4.4-3.2
					c-3.4,0.8-6.4,2.5-8.7,4.8c0,0,1.3,4.4,0.6,5.6c-0.7,1.2-5.2,2.3-5.2,2.3c-0.4,1.5-0.7,3.2-0.7,4.8c0,1.7,0.3,3.4,0.7,5
					c0,0,4.4,1.1,5.1,2.3c0.7,1.2-0.6,5.5-0.6,5.5c2.4,2.4,5.4,4.1,8.8,4.8c0,0,2.9-3.1,4.2-3.1c1.3,0,4.1,3,4.1,3
					C376.9,329.3,380,327.4,382.4,324.8z"/>
			</g>
			<circle fill="#E6E6E6" cx="369.1" cy="312.7" r="11.7"/>
		</g>
		<g>
			<circle fill="#1A1A1A" cx="285.8" cy="312.7" r="20.3"/>
			<g>
				<path fill="#262828" d="M299.2,324.8c0,0-1.1-3.8-0.5-4.8c0.6-1,4.4-1.9,4.4-1.9c0.5-1.7,0.8-3.5,0.8-5.3c0-1.8-0.3-3.5-0.8-5.2
					c0,0-3.8-0.9-4.4-2c-0.6-1.1,0.5-5,0.5-5c-2.3-2.6-5.4-4.4-8.8-5.3c0,0-2.9,3.1-4.2,3.1c-1.4,0-4.4-3.2-4.4-3.2
					c-3.4,0.8-6.4,2.5-8.7,4.8c0,0,1.3,4.4,0.6,5.6c-0.7,1.2-5.2,2.3-5.2,2.3c-0.4,1.5-0.7,3.2-0.7,4.8c0,1.7,0.3,3.4,0.7,5
					c0,0,4.4,1.1,5.1,2.3c0.7,1.2-0.6,5.5-0.6,5.5c2.4,2.4,5.4,4.1,8.8,4.8c0,0,2.9-3.1,4.2-3.1c1.3,0,4.1,3,4.1,3
					C293.7,329.3,296.8,327.4,299.2,324.8z"/>
			</g>
			<circle fill="#E6E6E6" cx="285.8" cy="312.7" r="11.7"/>
		</g>
		<g>
			<circle fill="#1A1A1A" cx="207.8" cy="313.7" r="20.3"/>
			<g>
				<path fill="#262828" d="M221.1,325.7c0,0-1.1-3.8-0.5-4.8c0.6-1,4.4-1.9,4.4-1.9c0.5-1.7,0.8-3.5,0.8-5.3c0-1.8-0.3-3.5-0.8-5.2
					c0,0-3.8-0.9-4.4-2c-0.6-1.1,0.5-5,0.5-5c-2.3-2.6-5.4-4.4-8.8-5.3c0,0-2.9,3.1-4.2,3.1c-1.4,0-4.4-3.2-4.4-3.2
					c-3.4,0.8-6.4,2.5-8.7,4.8c0,0,1.3,4.4,0.6,5.6c-0.7,1.2-5.2,2.3-5.2,2.3c-0.4,1.5-0.7,3.2-0.7,4.8c0,1.7,0.3,3.4,0.7,5
					c0,0,4.4,1.1,5.1,2.3c0.7,1.2-0.6,5.5-0.6,5.5c2.4,2.4,5.4,4.1,8.8,4.8c0,0,2.9-3.1,4.2-3.1c1.3,0,4.1,3,4.1,3
					C215.7,330.2,218.8,328.3,221.1,325.7z"/>
			</g>
			<circle fill="#E6E6E6" cx="207.8" cy="312.7" r="11.7"/>
		</g>
		<g>
			<g opacity="0.5">
				<path fill="#FFFFFF" d="M369.1,312.7h-11.7c0,6.5,5.2,11.7,11.7,11.7V312.7z M369.1,312.7h11.7c0-6.5-5.2-11.7-11.7-11.7V312.7z
					"/>
			</g>
			<g opacity="0.5">
				<path fill="#FFFFFF" d="M285.8,312.7h-11.7c0,6.5,5.2,11.7,11.7,11.7V312.7z M285.8,312.7h11.7c0-6.5-5.2-11.7-11.7-11.7V312.7z
					"/>
			</g>
			<g opacity="0.5">
				<path fill="#FFFFFF" d="M207.8,312.7H196c0,6.5,5.2,11.7,11.7,11.7V312.7z M207.8,312.7h11.7c0-6.5-5.2-11.7-11.7-11.7V312.7z"
					/>
			</g>
			<g opacity="0.5">
				<path fill="#FFFFFF" d="M368.7,221.8h-16.4c0,9.1,7.3,16.4,16.4,16.4V221.8z M368.7,221.8h16.4c0-9.1-7.3-16.4-16.4-16.4V221.8z
					"/>
			</g>
			<g opacity="0.5">
				<path fill="#FFFFFF" d="M288.1,221.8h-11.7c0,6.5,5.2,11.7,11.7,11.7V221.8z M288.1,221.8h11.7c0-6.5-5.2-11.7-11.7-11.7V221.8z
					"/>
			</g>
			<g opacity="0.5">
				<path fill="#FFFFFF" d="M207.2,221.8h-16.4c0,9.1,7.3,16.4,16.4,16.4V221.8z M207.2,221.8h16.4c0-9.1-7.3-16.4-16.4-16.4V221.8z
					"/>
			</g>
		</g>
	</g>
	<g>
		<circle fill="#CEB838" cx="207.3" cy="449.5" r="5.3"/>
		<circle fill="#3EDD58" cx="286.8" cy="449.5" r="5.3"/>
		<circle fill="#E13C67" cx="368.7" cy="449.5" r="5.3"/>
		<g>
			<path opacity="0.26" fill="#FFFFFF" d="M368.7,445c2.6,0,4.8,2.1,4.8,4.8c0,2.6-2.1,0.3-4.8,0.3c-2.6,0-4.8,2.3-4.8-0.3
				C363.9,447.2,366.1,445,368.7,445z"/>
			<path opacity="0.26" fill="#FFFFFF" d="M286.8,445c2.6,0,4.8,2.1,4.8,4.8c0,2.6-2.1,0.3-4.8,0.3c-2.6,0-4.8,2.3-4.8-0.3
				C282.1,447.2,284.2,445,286.8,445z"/>
			<path opacity="0.26" fill="#FFFFFF" d="M207.3,445c2.6,0,4.8,2.1,4.8,4.8c0,2.6-2.1,0.3-4.8,0.3c-2.6,0-4.8,2.3-4.8-0.3
				C202.6,447.2,204.7,445,207.3,445z"/>
		</g>
	</g>
</g>
</svg>
