
<svg version="1.1" id="Layer_1" xmlns="http://www.w3.org/2000/svg" xmlns:xlink="http://www.w3.org/1999/xlink" x="0px" y="0px"
	 viewBox="0 0 576 720" enable-background="new 0 0 576 720" xml:space="preserve">
<g>
	<g>
		<g>
			<path fill="#262828" d="M426.7,594.7h-275c-4.7,0-8.7-3.9-8.7-8.7V133.6c0-4.8,3.9-8.7,8.7-8.7h275.1c4.8,0,8.7,3.9,8.7,8.7
				v452.4C435.3,590.8,431.5,594.7,426.7,594.7L426.7,594.7z"/>
			<path fill="#1D1E1E" d="M430.1,594.7H148c-2.9,0-5-2.3-5-5V437.7c0-2.9,2.3-5,5-5h282.3c2.9,0,5,2.3,5,5v152
				C435.3,592.3,433,594.7,430.1,594.7L430.1,594.7z"/>
		</g>
		<g>
			<path fill="#99613A" d="M146,600h-11.6c-3.6,0-6.6-2.9-6.6-6.6v-467c0-3.6,2.9-6.5,6.6-6.5H146c3.6,0,6.6,2.9,6.6,6.5v467
				C152.4,597,149.5,600,146,600z"/>
			<path fill="#99613A" d="M441.8,600h-11.6c-3.6,0-6.5-2.9-6.5-6.6v-467c0-3.6,3-6.5,6.5-6.5h11.6c3.6,0,6.5,2.9,6.5,6.5v467
				C448.3,597,445.3,600,441.8,600z"/>
		</g>
		<g>
			<g>
				<path fill="none" stroke="#FFFFFF" stroke-miterlimit="10" d="M249.1,431.7h-68.4c-4.7,0-8.7-3.9-8.7-8.7V172.3
					c0-4.8,3.9-8.6,8.7-8.6h68.5c4.7,0,8.7,3.9,8.7,8.6v250.8C257.9,427.8,254,431.7,249.1,431.7z"/>
				<path fill="#FFFFFF" d="M172.1,182.9v-10.6c0-4.8,3.9-8.6,8.7-8.6h68.5c4.7,0,8.7,3.9,8.7,8.6v10.6H172.1z"/>
			</g>
			<g>
				<path fill="none" stroke="#FFFFFF" stroke-miterlimit="10" d="M396.1,431.7h-68.5c-4.7,0-8.7-3.9-8.7-8.7V172.3
					c0-4.8,3.9-8.6,8.7-8.6h68.5c4.8,0,8.7,3.9,8.7,8.6v250.8C404.7,427.8,400.8,431.7,396.1,431.7z"/>
				<path fill="#FFFFFF" d="M318.9,182.9v-10.6c0-4.8,3.9-8.6,8.7-8.6h68.5c4.8,0,8.7,3.9,8.7,8.6v10.6H318.9L318.9,182.9z"/>
			</g>
		</g>
	</g>
	<g>
		<g>
			<path fill="#FFFFFF" d="M237.2,325.3h-44.4c-0.8,0-1.4-0.6-1.4-1.4v-17.4c0-0.8,0.6-1.4,1.4-1.4h44.4c0.8,0,1.4,0.6,1.4,1.4v17.4
				C238.6,324.6,238,325.3,237.2,325.3z"/>
			<path fill="#E6E6E6" d="M236.6,325.3h-22.6l0.3-20.3h22.2c0.8,0,1.4,0.6,1.4,1.4v17.4C238,324.6,237.4,325.3,236.6,325.3
				L236.6,325.3z"/>
		</g>
		<g>
			<circle fill="#B3B3B3" cx="215.2" cy="519.1" r="17.9"/>
			<path opacity="0.26" fill="#FFFFFF" d="M215.2,504.3c8.5,0,15.3,6.9,15.3,15.3c0,8.5-6.9-3.5-15.3-3.5s-15.3,12-15.3,3.5
				C199.9,511.1,206.7,504.3,215.2,504.3z"/>
			<circle fill="#E6E6E6" cx="215.2" cy="519.1" r="8.8"/>
		</g>
		<g>
			<circle fill="#B3B3B3" cx="362.3" cy="519.1" r="17.9"/>
			<path opacity="0.26" fill="#FFFFFF" d="M362.3,504.3c8.5,0,15.3,6.9,15.3,15.3c0,8.5-6.9-3.5-15.3-3.5s-15.3,12-15.3,3.5
				C346.9,511.1,353.8,504.3,362.3,504.3z"/>
			<circle fill="#E6E6E6" cx="362.3" cy="519.1" r="8.8"/>
		</g>
	</g>
	<g>
		<circle fill="#CEB838" cx="288.6" cy="448.6" r="5.3"/>
		<circle fill="#3EDD58" cx="215.4" cy="448.6" r="5.3"/>
		<circle fill="#3EDD58" cx="362.1" cy="448.6" r="5.3"/>
		<circle fill="#E13C67" cx="332.4" cy="254.1" r="5.3"/>
	</g>
	<g>
		<g>
			<circle fill="#1A1A1A" cx="288.3" cy="292.5" r="20.3"/>
			<circle fill="#E6E6E6" cx="288.3" cy="292.5" r="11.7"/>
		</g>
		<g>
			<circle fill="#1A1A1A" cx="288.7" cy="364.9" r="20.3"/>
			<circle fill="#E6E6E6" cx="288.7" cy="364.8" r="11.7"/>
		</g>
		<g>
			<circle fill="#1A1A1A" cx="288.7" cy="221.1" r="20.3"/>
			<circle fill="#E6E6E6" cx="288.7" cy="221" r="11.7"/>
		</g>
		<g display="none">
			<circle display="inline" fill="#1A1A1A" cx="215.1" cy="237.8" r="28.2"/>
			<circle display="inline" fill="#E6E6E6" cx="214.9" cy="237.8" r="16.4"/>
		</g>
		<g>
			<circle fill="#1A1A1A" cx="215.1" cy="237.8" r="28.2"/>
			<g>
				<path fill="#262828" d="M234.4,254.9c0,0-1.6-5.3-0.7-6.8c0.8-1.5,6.2-2.7,6.2-2.7c0.7-2.4,1.1-4.9,1.1-7.5c0-2.5-0.4-5-1.1-7.3
					c0,0-5.4-1.3-6.3-2.8c-0.9-1.5,0.8-7,0.8-7c-3.3-3.6-7.5-6.3-12.4-7.5c0,0-4.1,4.3-5.9,4.3c-1.9,0-6.2-4.5-6.2-4.5
					c-4.7,1.1-8.9,3.5-12.3,6.8c0,0,1.8,6.1,0.9,7.8c-1,1.7-7.3,3.2-7.3,3.2c-0.6,2.2-0.9,4.5-0.9,6.8c0,2.4,0.4,4.8,1,7
					c0,0,6.3,1.5,7.3,3.2c1,1.7-0.8,7.7-0.8,7.7c3.3,3.4,7.6,5.8,12.4,6.8c0,0,4.1-4.4,6-4.4c1.8,0,5.7,4.2,5.7,4.2
					C226.7,261.2,231.1,258.6,234.4,254.9z"/>
			</g>
			<circle fill="#E6E6E6" cx="215" cy="237.8" r="16.4"/>
		</g>
		<g display="none">
			<circle display="inline" fill="#1A1A1A" cx="215.1" cy="390.4" r="28.2"/>
			<circle display="inline" fill="#E6E6E6" cx="214.9" cy="390.4" r="16.5"/>
		</g>
		<g>
			<circle fill="#1A1A1A" cx="215.1" cy="390.4" r="28.2"/>
			<g>
				<path fill="#262828" d="M234.4,407.6c0,0-1.6-5.3-0.7-6.8c0.8-1.5,6.2-2.7,6.2-2.7c0.7-2.4,1.1-4.9,1.1-7.5c0-2.5-0.4-5-1.1-7.3
					c0,0-5.4-1.3-6.3-2.8c-0.9-1.5,0.8-7,0.8-7c-3.3-3.6-7.5-6.3-12.4-7.5c0,0-4.1,4.3-5.9,4.3c-1.9,0-6.2-4.5-6.2-4.5
					c-4.7,1.1-8.9,3.5-12.3,6.8c0,0,1.8,6.1,0.9,7.8c-1,1.7-7.3,3.2-7.3,3.2c-0.6,2.2-0.9,4.5-0.9,6.8c0,2.4,0.4,4.8,1,7
					c0,0,6.3,1.5,7.3,3.2c1,1.7-0.8,7.7-0.8,7.7c3.3,3.4,7.6,5.8,12.4,6.8c0,0,4.1-4.4,6-4.4c1.8,0,5.7,4.2,5.7,4.2
					C226.7,413.9,231.1,411.2,234.4,407.6z"/>
			</g>
			<circle fill="#E6E6E6" cx="215" cy="390.4" r="16.4"/>
		</g>
		<g display="none">
			<circle display="inline" fill="#1A1A1A" cx="361.4" cy="223.7" r="28.2"/>
			<circle display="inline" fill="#E6E6E6" cx="361.5" cy="223.7" r="16.4"/>
		</g>
		<g display="none">
			<circle display="inline" fill="#1A1A1A" cx="361.4" cy="309.2" r="28.2"/>
			<circle display="inline" fill="#E6E6E6" cx="361.5" cy="309.2" r="16.4"/>
		</g>
		<g>
			<circle fill="#1A1A1A" cx="361.5" cy="393.9" r="28.2"/>
			<g>
				<path fill="#262828" d="M380.8,411.1c0,0-1.6-5.3-0.7-6.8c0.8-1.5,6.2-2.7,6.2-2.7c0.7-2.4,1.1-4.9,1.1-7.5c0-2.5-0.4-5-1.1-7.3
					c0,0-5.4-1.3-6.3-2.8c-0.9-1.5,0.8-7,0.8-7c-3.3-3.6-7.5-6.3-12.4-7.5c0,0-4.1,4.3-5.9,4.3c-1.9,0-6.2-4.5-6.2-4.5
					c-4.7,1.1-8.9,3.5-12.3,6.8c0,0,1.8,6.1,0.9,7.8c-1,1.7-7.3,3.2-7.3,3.2c-0.6,2.2-0.9,4.5-0.9,6.8c0,2.4,0.4,4.8,1,7
					c0,0,6.3,1.5,7.3,3.2c1,1.7-0.8,7.7-0.8,7.7c3.3,3.4,7.6,5.8,12.4,6.8c0,0,4.1-4.4,6-4.4c1.8,0,5.7,4.2,5.7,4.2
					C373.2,417.4,377.5,414.7,380.8,411.1z"/>
			</g>
			<circle fill="#E6E6E6" cx="361.4" cy="393.9" r="16.4"/>
		</g>
		<g>
			<circle fill="#1A1A1A" cx="361.5" cy="308.9" r="28.2"/>
			<g>
				<path fill="#262828" d="M380.8,326.1c0,0-1.6-5.3-0.7-6.8c0.8-1.5,6.2-2.7,6.2-2.7c0.7-2.4,1.1-4.9,1.1-7.5c0-2.5-0.4-5-1.1-7.3
					c0,0-5.4-1.3-6.3-2.8c-0.9-1.5,0.8-7,0.8-7c-3.3-3.6-7.5-6.3-12.4-7.5c0,0-4.1,4.3-5.9,4.3c-1.9,0-6.2-4.5-6.2-4.5
					c-4.7,1.1-8.9,3.5-12.3,6.8c0,0,1.8,6.1,0.9,7.8c-1,1.7-7.3,3.2-7.3,3.2c-0.6,2.2-0.9,4.5-0.9,6.8c0,2.4,0.4,4.8,1,7
					c0,0,6.3,1.5,7.3,3.2c1,1.7-0.8,7.7-0.8,7.7c3.3,3.4,7.6,5.8,12.4,6.8c0,0,4.1-4.4,6-4.4c1.8,0,5.7,4.2,5.7,4.2
					C373.2,332.4,377.5,329.7,380.8,326.1z"/>
			</g>
			<circle fill="#E6E6E6" cx="361.4" cy="308.9" r="16.4"/>
		</g>
		<g>
			<circle fill="#1A1A1A" cx="361.7" cy="223.7" r="28.2"/>
			<g>
				<path fill="#262828" d="M381,240.8c0,0-1.6-5.3-0.7-6.8c0.8-1.5,6.2-2.7,6.2-2.7c0.7-2.4,1.1-4.9,1.1-7.5c0-2.5-0.4-5-1.1-7.3
					c0,0-5.4-1.3-6.3-2.8c-0.9-1.5,0.8-7,0.8-7c-3.3-3.6-7.5-6.3-12.4-7.5c0,0-4.1,4.3-5.9,4.3c-1.9,0-6.2-4.5-6.2-4.5
					c-4.7,1.1-8.9,3.5-12.3,6.8c0,0,1.8,6.1,0.9,7.8c-1,1.7-7.3,3.2-7.3,3.2c-0.6,2.2-0.9,4.5-0.9,6.8c0,2.4,0.4,4.8,1,7
					c0,0,6.3,1.5,7.3,3.2c1,1.7-0.8,7.7-0.8,7.7c3.3,3.4,7.6,5.8,12.4,6.8c0,0,4.1-4.4,6-4.4c1.8,0,5.7,4.2,5.7,4.2
					C373.4,247.1,377.7,244.5,381,240.8z"/>
			</g>
			<circle fill="#E6E6E6" cx="361.6" cy="223.7" r="16.4"/>
		</g>
		<g display="none">
			<circle display="inline" fill="#1A1A1A" cx="361.4" cy="393.9" r="28.2"/>
			<circle display="inline" fill="#E6E6E6" cx="361.5" cy="393.9" r="16.5"/>
		</g>
		<g>
			<circle fill="#1A1A1A" cx="288.3" cy="292.7" r="20.3"/>
			<g>
				<path fill="#262828" d="M301.6,304.9c0,0-1.1-3.8-0.5-4.8c0.6-1,4.4-1.9,4.4-1.9c0.5-1.7,0.8-3.5,0.8-5.3c0-1.8-0.3-3.5-0.8-5.2
					c0,0-3.8-0.9-4.4-2c-0.6-1.1,0.5-5,0.5-5c-2.3-2.6-5.4-4.4-8.8-5.3c0,0-2.9,3.1-4.2,3.1c-1.4,0-4.4-3.2-4.4-3.2
					c-3.4,0.8-6.4,2.5-8.7,4.8c0,0,1.3,4.4,0.6,5.6c-0.7,1.2-5.2,2.3-5.2,2.3c-0.4,1.5-0.7,3.2-0.7,4.8c0,1.7,0.3,3.4,0.7,5
					c0,0,4.4,1.1,5.1,2.3c0.7,1.2-0.6,5.5-0.6,5.5c2.4,2.4,5.4,4.1,8.8,4.8c0,0,2.9-3.1,4.2-3.1c1.3,0,4.1,3,4.1,3
					C296.2,309.4,299.3,307.5,301.6,304.9z"/>
			</g>
			<circle fill="#E6E6E6" cx="288.3" cy="292.7" r="11.7"/>
		</g>
		<g>
			<circle fill="#1A1A1A" cx="288.7" cy="364.9" r="20.3"/>
			<g>
				<path fill="#262828" d="M302,377.1c0,0-1.1-3.8-0.5-4.8c0.6-1,4.4-1.9,4.4-1.9c0.5-1.7,0.8-3.5,0.8-5.3c0-1.8-0.3-3.5-0.8-5.2
					c0,0-3.8-0.9-4.4-2c-0.6-1.1,0.5-5,0.5-5c-2.3-2.6-5.4-4.4-8.8-5.3c0,0-2.9,3.1-4.2,3.1c-1.4,0-4.4-3.2-4.4-3.2
					c-3.4,0.8-6.4,2.5-8.7,4.8c0,0,1.3,4.4,0.6,5.6c-0.7,1.2-5.2,2.3-5.2,2.3c-0.4,1.5-0.7,3.2-0.7,4.8c0,1.7,0.3,3.4,0.7,5
					c0,0,4.4,1.1,5.1,2.3c0.7,1.2-0.6,5.5-0.6,5.5c2.4,2.4,5.4,4.1,8.8,4.8c0,0,2.9-3.1,4.2-3.1c1.3,0,4.1,3,4.1,3
					C296.6,381.6,299.7,379.7,302,377.1z"/>
			</g>
			<circle fill="#E6E6E6" cx="288.7" cy="364.9" r="11.7"/>
		</g>
		<g>
			<circle fill="#1A1A1A" cx="288.7" cy="221" r="20.3"/>
			<g>
				<path fill="#262828" d="M302,233.2c0,0-1.1-3.8-0.5-4.8c0.6-1,4.4-1.9,4.4-1.9c0.5-1.7,0.8-3.5,0.8-5.3c0-1.8-0.3-3.5-0.8-5.2
					c0,0-3.8-0.9-4.4-2c-0.6-1.1,0.5-5,0.5-5c-2.3-2.6-5.4-4.4-8.8-5.3c0,0-2.9,3.1-4.2,3.1c-1.4,0-4.4-3.2-4.4-3.2
					c-3.4,0.8-6.4,2.5-8.7,4.8c0,0,1.3,4.4,0.6,5.6c-0.7,1.2-5.2,2.3-5.2,2.3c-0.4,1.5-0.7,3.2-0.7,4.8c0,1.7,0.3,3.4,0.7,5
					c0,0,4.4,1.1,5.1,2.3c0.7,1.2-0.6,5.5-0.6,5.5c2.4,2.4,5.4,4.1,8.8,4.8c0,0,2.9-3.1,4.2-3.1c1.3,0,4.1,3,4.1,3
					C296.6,237.7,299.7,235.8,302,233.2z"/>
			</g>
			<circle fill="#E6E6E6" cx="288.7" cy="221" r="11.7"/>
		</g>
		<g>
			<g opacity="0.5">
				<path fill="#FFFFFF" d="M288.7,221h-11.6c0,6.5,5.2,11.6,11.6,11.6V221z M288.7,221h11.6c0-6.5-5.2-11.6-11.6-11.6V221z"/>
			</g>
			<g opacity="0.5">
				<path fill="#FFFFFF" d="M288.3,292.5h-11.6c0,6.5,5.2,11.6,11.6,11.6V292.5z M288.3,292.5h11.6c0-6.5-5.2-11.6-11.6-11.6V292.5z
					"/>
			</g>
			<g opacity="0.5">
				<path fill="#FFFFFF" d="M288.7,364.8H277c0,6.5,5.2,11.7,11.7,11.7V364.8z M288.7,364.8h11.7c0-6.5-5.2-11.7-11.7-11.7V364.8z"
					/>
			</g>
			<g opacity="0.5">
				<path fill="#FFFFFF" d="M214.9,237.8h-16.5c0,9.1,7.3,16.5,16.5,16.5V237.8z M214.9,237.8h16.5c0-9.1-7.3-16.5-16.5-16.5V237.8z
					"/>
			</g>
			<g opacity="0.5">
				<path fill="#FFFFFF" d="M214.9,390.4h-16.5c0,9.1,7.3,16.5,16.5,16.5V390.4z M214.9,390.4h16.5c0-9.1-7.3-16.5-16.5-16.5V390.4z
					"/>
			</g>
			<g opacity="0.5">
				<path fill="#FFFFFF" d="M361.4,223.8H345c0,9.1,7.3,16.5,16.5,16.5V223.8z M361.4,223.8h16.5c0-9.1-7.3-16.5-16.5-16.5V223.8z"
					/>
			</g>
			<g opacity="0.5">
				<path fill="#FFFFFF" d="M361.5,309.2h-16.5c0,9.1,7.3,16.5,16.5,16.5V309.2z M361.5,309.2H378c0-9.1-7.3-16.5-16.5-16.5V309.2z"
					/>
			</g>
			<g opacity="0.5">
				<path fill="#FFFFFF" d="M361.5,393.9h-16.5c0,9.1,7.3,16.5,16.5,16.5V393.9z M361.5,393.9H378c0-9.1-7.3-16.5-16.5-16.5V393.9z"
					/>
			</g>
		</g>
	</g>
	<path opacity="0.26" fill="#FFFFFF" d="M215.4,443.9c2.6,0,4.8,2.1,4.8,4.8s-2.1,0.3-4.8,0.3s-4.8,2.3-4.8-0.3
		S212.8,443.9,215.4,443.9z"/>
	<path opacity="0.26" fill="#FFFFFF" d="M288.6,443.9c2.6,0,4.8,2.1,4.8,4.8s-2.1,0.3-4.8,0.3c-2.6,0-4.8,2.3-4.8-0.3
		S286,443.9,288.6,443.9z"/>
	<path opacity="0.26" fill="#FFFFFF" d="M362.1,443.9c2.6,0,4.8,2.1,4.8,4.8s-2.1,0.3-4.8,0.3s-4.8,2.3-4.8-0.3
		S359.4,443.9,362.1,443.9z"/>
	<path opacity="0.26" fill="#FFFFFF" d="M332.4,249.6c2.6,0,4.8,2.1,4.8,4.8c0,2.6-2.1,0.3-4.8,0.3c-2.6,0-4.8,2.3-4.8-0.3
		C327.7,251.7,329.8,249.6,332.4,249.6z"/>
</g>
</svg>
