<svg version="1.1" id="Layer_1" xmlns="http://www.w3.org/2000/svg" xmlns:xlink="http://www.w3.org/1999/xlink" x="0px" y="0px"
	 viewBox="0 0 576 720" enable-background="new 0 0 576 720" xml:space="preserve">
<g>
	<g>
		<g>
			<path fill="#262828" d="M426.7,594.7h-275c-4.7,0-8.7-3.9-8.7-8.7V133.6c0-4.8,3.9-8.7,8.7-8.7h275.1c4.8,0,8.7,3.9,8.7,8.7
				v452.4C435.3,590.8,431.5,594.7,426.7,594.7L426.7,594.7z"/>
			<path fill="#1D1E1E" d="M430.1,594.7H148c-2.9,0-5-2.3-5-5V437.7c0-2.9,2.3-5,5-5h282.3c2.9,0,5,2.3,5,5v152
				C435.3,592.3,433,594.7,430.1,594.7L430.1,594.7z"/>
		</g>
		<g>
			<path fill="#99613A" d="M441.8,600h-11.6c-3.6,0-6.5-2.9-6.5-6.6v-467c0-3.6,3-6.5,6.5-6.5h11.6c3.6,0,6.5,2.9,6.5,6.5v467
				C448.3,597,445.3,600,441.8,600z"/>
			<path fill="#99613A" d="M146,600h-11.6c-3.6,0-6.6-2.9-6.6-6.6v-467c0-3.6,2.9-6.5,6.6-6.5H146c3.6,0,6.6,2.9,6.6,6.5v467
				C152.4,597,149.5,600,146,600z"/>
		</g>
		<g>
			<path fill="none" stroke="#FFFFFF" stroke-miterlimit="10" d="M396.1,431.7h-68.5c-4.7,0-8.7-3.9-8.7-8.7V172.3
				c0-4.8,3.9-8.6,8.7-8.6h68.5c4.8,0,8.7,3.9,8.7,8.6v250.8C404.7,427.8,400.8,431.7,396.1,431.7z"/>
			<path fill="#FFFFFF" d="M318.9,182.9v-10.6c0-4.8,3.9-8.6,8.7-8.6h68.5c4.8,0,8.7,3.9,8.7,8.6v10.6H318.9L318.9,182.9z"/>
		</g>
		<g>
			<path fill="none" stroke="#FFFFFF" stroke-miterlimit="10" d="M249.1,431.7h-68.4c-4.7,0-8.7-3.9-8.7-8.7V172.3
				c0-4.8,3.9-8.6,8.7-8.6h68.5c4.7,0,8.7,3.9,8.7,8.6v250.8C257.9,427.8,254,431.7,249.1,431.7z"/>
			<path fill="#FFFFFF" d="M172.1,182.9v-10.6c0-4.8,3.9-8.6,8.7-8.6h68.5c4.7,0,8.7,3.9,8.7,8.6v10.6H172.1z"/>
		</g>
	</g>
	<g>
		<circle fill="#E13C67" cx="288" cy="358" r="5.3"/>
		<circle fill="#CEB838" cx="288" cy="306.1" r="5.3"/>
		<circle fill="#3EDD58" cx="288" cy="410" r="5.3"/>
		<g>
			<path opacity="0.26" fill="#FFFFFF" d="M288,405.5c2.6,0,4.8,2.1,4.8,4.8c0,2.6-2.1,0.3-4.8,0.3c-2.6,0-4.8,2.3-4.8-0.3
				C283.2,407.6,285.4,405.5,288,405.5z"/>
			<path opacity="0.26" fill="#FFFFFF" d="M288,353.4c2.6,0,4.8,2.1,4.8,4.8c0,2.6-2.1,0.3-4.8,0.3c-2.6,0-4.8,2.3-4.8-0.3
				C283.2,355.5,285.4,353.4,288,353.4z"/>
			<path opacity="0.26" fill="#FFFFFF" d="M288,301.5c2.6,0,4.8,2.1,4.8,4.8c0,2.6-2.1,0.3-4.8,0.3c-2.6,0-4.8,2.3-4.8-0.3
				C283.2,303.6,285.4,301.5,288,301.5z"/>
		</g>
	</g>
	<g>
		<g>
			<path fill="#0062AC" d="M383.7,316h-44.4c-0.8,0-1.4-0.6-1.4-1.4v-17.4c0-0.8,0.7-1.4,1.4-1.4h44.4c0.8,0,1.4,0.6,1.4,1.4v17.4
				C385.2,315.5,384.5,316,383.7,316z"/>
			<path fill="#0078BD" d="M383.1,316h-22.6l0.3-20.3h22.3c0.8,0,1.4,0.6,1.4,1.4v17.4C384.5,315.5,383.9,316,383.1,316L383.1,316z"
				/>
		</g>
		<g>
			<path fill="#0078BD" d="M236.8,316h-44.4c-0.8,0-1.4-0.6-1.4-1.4v-17.4c0-0.8,0.6-1.4,1.4-1.4h44.4c0.8,0,1.4,0.6,1.4,1.4v17.4
				C238.2,315.5,237.5,316,236.8,316z"/>
			<path fill="#0062AC" d="M236.2,316h-22.6l0.3-20.3h22.2c0.8,0,1.4,0.6,1.4,1.4v17.4C237.5,315.5,236.9,316,236.2,316L236.2,316z"
				/>
		</g>
		<g>
			<circle fill="#B3B3B3" cx="288" cy="518.5" r="17.9"/>
			<path opacity="0.26" fill="#FFFFFF" d="M288,503.6c8.5,0,15.3,6.9,15.3,15.3c0,8.5-6.9-3.5-15.3-3.5c-8.5,0-15.3,12-15.3,3.5
				C272.7,510.5,279.5,503.6,288,503.6z"/>
			<circle fill="#E6E6E6" cx="288" cy="518.5" r="8.8"/>
		</g>
	</g>
	<g>
		<g>
			<circle fill="#1A1A1A" cx="361.4" cy="390.1" r="28.2"/>
			<g>
				<path fill="#262828" d="M380.2,407.3c0,0-1.6-5.3-0.7-6.8c0.8-1.5,6.2-2.7,6.2-2.7c0.7-2.4,1.1-4.9,1.1-7.5c0-2.5-0.4-5-1.1-7.3
					c0,0-5.4-1.3-6.3-2.8c-0.9-1.5,0.8-7,0.8-7c-3.3-3.6-7.5-6.3-12.4-7.5c0,0-4.1,4.3-5.9,4.3c-1.9,0-6.2-4.5-6.2-4.5
					c-4.7,1.1-8.9,3.5-12.3,6.8c0,0,1.8,6.1,0.9,7.8c-1,1.7-7.3,3.2-7.3,3.2c-0.6,2.2-0.9,4.5-0.9,6.8c0,2.4,0.4,4.8,1,7
					c0,0,6.3,1.5,7.3,3.2c1,1.7-0.8,7.7-0.8,7.7c3.3,3.4,7.6,5.8,12.4,6.8c0,0,4.1-4.4,6-4.4c1.8,0,5.7,4.2,5.7,4.2
					C372.5,413.6,376.9,410.9,380.2,407.3z"/>
			</g>
			<circle fill="#E6E6E6" cx="361.6" cy="390.1" r="16.5"/>
		</g>
		<g>
			<circle fill="#1A1A1A" cx="214.6" cy="389.9" r="28.2"/>
			<g>
				<path fill="#262828" d="M233.3,406.9c0,0-1.6-5.3-0.7-6.8c0.8-1.5,6.2-2.7,6.2-2.7c0.7-2.4,1.1-4.9,1.1-7.5c0-2.5-0.4-5-1.1-7.3
					c0,0-5.4-1.3-6.3-2.8c-0.9-1.5,0.8-7,0.8-7c-3.3-3.6-7.5-6.3-12.4-7.5c0,0-4.1,4.3-5.9,4.3c-1.9,0-6.2-4.5-6.2-4.5
					c-4.7,1.1-8.9,3.5-12.3,6.8c0,0,1.8,6.1,0.9,7.8c-1,1.7-7.3,3.2-7.3,3.2c-0.6,2.2-0.9,4.5-0.9,6.8c0,2.4,0.4,4.8,1,7
					c0,0,6.3,1.5,7.3,3.2c1,1.7-0.8,7.7-0.8,7.7c3.3,3.4,7.6,5.8,12.4,6.8c0,0,4.1-4.4,6-4.4c1.8,0,5.7,4.2,5.7,4.2
					C225.6,413.2,230,410.6,233.3,406.9z"/>
			</g>
			<circle fill="#E6E6E6" cx="214.5" cy="389.9" r="16.5"/>
		</g>
		<g>
			<circle fill="#1A1A1A" cx="361.4" cy="221.7" r="28.2"/>
			<g>
				<path fill="#262828" d="M379.8,238.7c0,0-1.6-5.3-0.7-6.8c0.8-1.5,6.2-2.7,6.2-2.7c0.7-2.4,1.1-4.9,1.1-7.5c0-2.5-0.4-5-1.1-7.3
					c0,0-5.4-1.3-6.3-2.8c-0.9-1.5,0.8-7,0.8-7c-3.3-3.6-7.5-6.3-12.4-7.5c0,0-4.1,4.3-5.9,4.3c-1.9,0-6.2-4.5-6.2-4.5
					c-4.7,1.1-8.9,3.5-12.3,6.8c0,0,1.8,6.1,0.9,7.8c-1,1.7-7.3,3.2-7.3,3.2c-0.6,2.2-0.9,4.5-0.9,6.8c0,2.4,0.4,4.8,1,7
					c0,0,6.3,1.5,7.3,3.2c1,1.7-0.8,7.7-0.8,7.7c3.3,3.4,7.6,5.8,12.4,6.8c0,0,4.1-4.4,6-4.4c1.8,0,5.7,4.2,5.7,4.2
					C372.2,245,376.5,242.3,379.8,238.7z"/>
			</g>
			<circle fill="#E6E6E6" cx="361.6" cy="221.7" r="16.4"/>
		</g>
		<g>
			<circle fill="#1A1A1A" cx="288.7" cy="221.7" r="20.3"/>
			<g>
				<path fill="#262828" d="M302,233.8c0,0-1.1-3.8-0.5-4.8c0.6-1,4.4-1.9,4.4-1.9c0.5-1.7,0.8-3.5,0.8-5.3c0-1.8-0.3-3.5-0.8-5.2
					c0,0-3.8-0.9-4.4-2c-0.6-1.1,0.5-5,0.5-5c-2.3-2.6-5.4-4.4-8.8-5.3c0,0-2.9,3.1-4.2,3.1c-1.4,0-4.4-3.2-4.4-3.2
					c-3.4,0.8-6.4,2.5-8.7,4.8c0,0,1.3,4.4,0.6,5.6c-0.7,1.2-5.2,2.3-5.2,2.3c-0.4,1.5-0.7,3.2-0.7,4.8c0,1.7,0.3,3.4,0.7,5
					c0,0,4.4,1.1,5.1,2.3c0.7,1.2-0.6,5.5-0.6,5.5c2.4,2.4,5.4,4.1,8.8,4.8c0,0,2.9-3.1,4.2-3.1c1.3,0,4.1,3,4.1,3
					C296.6,238.3,299.6,236.4,302,233.8z"/>
			</g>
			<circle fill="#E6E6E6" cx="288.7" cy="221.7" r="11.7"/>
		</g>
		<g>
			<circle fill="#1A1A1A" cx="214.6" cy="221.7" r="28.2"/>
			<g>
				<path fill="#262828" d="M233.9,238.8c0,0-1.6-5.3-0.7-6.8c0.8-1.5,6.2-2.7,6.2-2.7c0.7-2.4,1.1-4.9,1.1-7.5c0-2.5-0.4-5-1.1-7.3
					c0,0-5.4-1.3-6.3-2.8c-0.9-1.5,0.8-7,0.8-7c-3.3-3.6-7.5-6.3-12.4-7.5c0,0-4.1,4.3-5.9,4.3c-1.9,0-6.2-4.5-6.2-4.5
					c-4.7,1.1-8.9,3.5-12.3,6.8c0,0,1.8,6.1,0.9,7.8c-1,1.7-7.3,3.2-7.3,3.2c-0.6,2.2-0.9,4.5-0.9,6.8c0,2.4,0.4,4.8,1,7
					c0,0,6.3,1.5,7.3,3.2c1,1.7-0.8,7.7-0.8,7.7c3.3,3.4,7.6,5.8,12.4,6.8c0,0,4.1-4.4,6-4.4c1.8,0,5.7,4.2,5.7,4.2
					C226.2,245.1,230.6,242.4,233.9,238.8z"/>
			</g>
			<circle fill="#E6E6E6" cx="214.5" cy="221.7" r="16.4"/>
		</g>
		<g>
			<g opacity="0.5">
				<path fill="#FFFFFF" d="M288.7,221.8h-11.7c0,6.5,5.2,11.7,11.7,11.7V221.8z M288.7,221.8h11.7c0-6.5-5.2-11.7-11.7-11.7V221.8z
					"/>
			</g>
			<g opacity="0.5">
				<path fill="#FFFFFF" d="M214.5,221.8h-16.4c0,9.1,7.3,16.4,16.4,16.4V221.8z M214.5,221.8h16.4c0-9.1-7.3-16.4-16.4-16.4V221.8z
					"/>
			</g>
			<g opacity="0.5">
				<path fill="#FFFFFF" d="M361.4,221.8H345c0,9.1,7.3,16.4,16.4,16.4V221.8z M361.4,221.8h16.4c0-9.1-7.3-16.4-16.4-16.4V221.8z"
					/>
			</g>
			<g opacity="0.5">
				<path fill="#FFFFFF" d="M361.6,390.2h-16.4c0,9.1,7.3,16.4,16.4,16.4V390.2z M361.6,390.2h16.4c0-9.1-7.3-16.4-16.4-16.4V390.2z
					"/>
			</g>
			<g opacity="0.5">
				<path fill="#FFFFFF" d="M214.5,390h-16.4c0,9.1,7.3,16.4,16.4,16.4V390z M214.5,390h16.4c0-9.1-7.3-16.4-16.4-16.4V390z"/>
			</g>
		</g>
	</g>
</g>
</svg>
