<svg xmlns="http://www.w3.org/2000/svg" viewBox="0 0 576 720"><path fill="#262828" d="M426.7 594.7h-275c-4.7 0-8.7-3.9-8.7-8.7V133.6c0-4.8 3.9-8.7 8.7-8.7h275.1c4.8 0 8.7 3.9 8.7 8.7V586c-.2 4.8-4 8.7-8.8 8.7z"/><path fill="#1D1E1E" d="M430.1 594.7H148c-2.9 0-5-2.3-5-5v-152c0-2.9 2.3-5 5-5h282.3c2.9 0 5 2.3 5 5v152c0 2.6-2.3 5-5.2 5z"/><g fill="#99613A"><path d="M146 600h-11.6c-3.6 0-6.6-2.9-6.6-6.6v-467c0-3.6 2.9-6.5 6.6-6.5H146c3.6 0 6.6 2.9 6.6 6.5v467c-.2 3.6-3.1 6.6-6.6 6.6zM441.8 600h-11.6c-3.6 0-6.5-2.9-6.5-6.6v-467c0-3.6 3-6.5 6.5-6.5h11.6c3.6 0 6.5 2.9 6.5 6.5v467c0 3.6-3 6.6-6.5 6.6z"/></g><path fill="none" stroke="#FFF" stroke-miterlimit="10" d="M249.1 431.7h-68.4c-4.7 0-8.7-3.9-8.7-8.7V172.3c0-4.8 3.9-8.6 8.7-8.6h68.5c4.7 0 8.7 3.9 8.7 8.6v250.8c0 4.7-3.9 8.6-8.8 8.6z"/><path fill="#FFF" d="M172.1 182.9v-10.6c0-4.8 3.9-8.6 8.7-8.6h68.5c4.7 0 8.7 3.9 8.7 8.6v10.6h-85.9z"/><path fill="none" stroke="#FFF" stroke-miterlimit="10" d="M396.1 431.7h-68.5c-4.7 0-8.7-3.9-8.7-8.7V172.3c0-4.8 3.9-8.6 8.7-8.6h68.5c4.8 0 8.7 3.9 8.7 8.6v250.8c-.1 4.7-4 8.6-8.7 8.6z"/><circle fill="#CEB838" cx="289" cy="373.3" r="5.3"/><circle fill="#3EDD58" cx="289.1" cy="411.6" r="5.3"/><path opacity=".26" fill="#FFF" d="M289 368.7c2.6 0 4.8 2.1 4.8 4.8 0 2.6-2.1.3-4.8.3-2.6 0-4.8 2.3-4.8-.3.1-2.7 2.2-4.8 4.8-4.8zM289.2 406.9c2.6 0 4.8 2.1 4.8 4.8 0 2.6-2.1.3-4.8.3-2.6 0-4.8 2.3-4.8-.3 0-2.7 2.2-4.8 4.8-4.8z"/><circle fill="#B3B3B3" cx="289.2" cy="519.1" r="17.9"/><path opacity=".26" fill="#FFF" d="M289.2 504.3c8.5 0 15.3 6.9 15.3 15.3 0 8.5-6.9-3.5-15.3-3.5-8.5 0-15.3 12-15.3 3.5s6.8-15.3 15.3-15.3z"/><circle fill="#E6E6E6" cx="289.2" cy="519.1" r="8.8"/><g><path fill="#FFE443" d="M237.2 325.3h-44.4c-.8 0-1.4-.6-1.4-1.4v-17.4c0-.8.6-1.4 1.4-1.4h44.4c.8 0 1.4.6 1.4 1.4v17.4c0 .7-.6 1.4-1.4 1.4z"/><path fill="#F2D336" d="M236.6 325.3H214l.3-20.3h22.2c.8 0 1.4.6 1.4 1.4v17.4c.1.8-.5 1.5-1.3 1.5z"/></g><g><circle fill="#1A1A1A" cx="215.1" cy="234.9" r="28.2"/><path fill="#262828" d="M234.4 252s-1.6-5.3-.7-6.8c.8-1.5 6.2-2.7 6.2-2.7.7-2.4 1.1-4.9 1.1-7.5 0-2.5-.4-5-1.1-7.3 0 0-5.4-1.3-6.3-2.8-.9-1.5.8-7 .8-7-3.3-3.6-7.5-6.3-12.4-7.5 0 0-4.1 4.3-5.9 4.3-1.9 0-6.2-4.5-6.2-4.5-4.7 1.1-8.9 3.5-12.3 6.8 0 0 1.8 6.1.9 7.8-1 1.7-7.3 3.2-7.3 3.2-.6 2.2-.9 4.5-.9 6.8 0 2.4.4 4.8 1 7 0 0 6.3 1.5 7.3 3.2 1 1.7-.8 7.7-.8 7.7 3.3 3.4 7.6 5.8 12.4 6.8 0 0 4.1-4.4 6-4.4 1.8 0 5.7 4.2 5.7 4.2 4.8-1 9.2-3.6 12.5-7.3z"/><circle fill="#E6E6E6" cx="215" cy="234.9" r="16.4"/><circle fill="#1A1A1A" cx="215.1" cy="387.5" r="28.2"/></g><g><path fill="#262828" d="M234.4 404.7s-1.6-5.3-.7-6.8c.8-1.5 6.2-2.7 6.2-2.7.7-2.4 1.1-4.9 1.1-7.5 0-2.5-.4-5-1.1-7.3 0 0-5.4-1.3-6.3-2.8-.9-1.5.8-7 .8-7-3.3-3.6-7.5-6.3-12.4-7.5 0 0-4.1 4.3-5.9 4.3-1.9 0-6.2-4.5-6.2-4.5-4.7 1.1-8.9 3.5-12.3 6.8 0 0 1.8 6.1.9 7.8-1 1.7-7.3 3.2-7.3 3.2-.6 2.2-.9 4.5-.9 6.8 0 2.4.4 4.8 1 7 0 0 6.3 1.5 7.3 3.2 1 1.7-.8 7.7-.8 7.7 3.3 3.4 7.6 5.8 12.4 6.8 0 0 4.1-4.4 6-4.4 1.8 0 5.7 4.2 5.7 4.2 4.8-1 9.2-3.7 12.5-7.3z"/><circle fill="#E6E6E6" cx="215" cy="387.5" r="16.4"/><circle fill="#1A1A1A" cx="361.5" cy="391" r="28.2"/></g><g><path fill="#262828" d="M380.8 408.2s-1.6-5.3-.7-6.8c.8-1.5 6.2-2.7 6.2-2.7.7-2.4 1.1-4.9 1.1-7.5 0-2.5-.4-5-1.1-7.3 0 0-5.4-1.3-6.3-2.8-.9-1.5.8-7 .8-7-3.3-3.6-7.5-6.3-12.4-7.5 0 0-4.1 4.3-5.9 4.3-1.9 0-6.2-4.5-6.2-4.5-4.7 1.1-8.9 3.5-12.3 6.8 0 0 1.8 6.1.9 7.8-1 1.7-7.3 3.2-7.3 3.2-.6 2.2-.9 4.5-.9 6.8 0 2.4.4 4.8 1 7 0 0 6.3 1.5 7.3 3.2 1 1.7-.8 7.7-.8 7.7 3.3 3.4 7.6 5.8 12.4 6.8 0 0 4.1-4.4 6-4.4 1.8 0 5.7 4.2 5.7 4.2 4.9-1 9.2-3.7 12.5-7.3z"/><circle fill="#E6E6E6" cx="361.4" cy="391" r="16.4"/><circle fill="#1A1A1A" cx="361.5" cy="306" r="28.2"/></g><g><path fill="#262828" d="M380.8 323.2s-1.6-5.3-.7-6.8c.8-1.5 6.2-2.7 6.2-2.7.7-2.4 1.1-4.9 1.1-7.5 0-2.5-.4-5-1.1-7.3 0 0-5.4-1.3-6.3-2.8-.9-1.5.8-7 .8-7-3.3-3.6-7.5-6.3-12.4-7.5 0 0-4.1 4.3-5.9 4.3-1.9 0-6.2-4.5-6.2-4.5-4.7 1.1-8.9 3.5-12.3 6.8 0 0 1.8 6.1.9 7.8-1 1.7-7.3 3.2-7.3 3.2-.6 2.2-.9 4.5-.9 6.8 0 2.4.4 4.8 1 7 0 0 6.3 1.5 7.3 3.2 1 1.7-.8 7.7-.8 7.7 3.3 3.4 7.6 5.8 12.4 6.8 0 0 4.1-4.4 6-4.4 1.8 0 5.7 4.2 5.7 4.2 4.9-1 9.2-3.7 12.5-7.3z"/><circle fill="#E6E6E6" cx="361.4" cy="306" r="16.4"/><circle fill="#1A1A1A" cx="361.7" cy="220.8" r="28.2"/></g><g><path fill="#262828" d="M381 237.9s-1.6-5.3-.7-6.8c.8-1.5 6.2-2.7 6.2-2.7.7-2.4 1.1-4.9 1.1-7.5 0-2.5-.4-5-1.1-7.3 0 0-5.4-1.3-6.3-2.8-.9-1.5.8-7 .8-7-3.3-3.6-7.5-6.3-12.4-7.5 0 0-4.1 4.3-5.9 4.3-1.9 0-6.2-4.5-6.2-4.5-4.7 1.1-8.9 3.5-12.3 6.8 0 0 1.8 6.1.9 7.8-1 1.7-7.3 3.2-7.3 3.2-.6 2.2-.9 4.5-.9 6.8 0 2.4.4 4.8 1 7 0 0 6.3 1.5 7.3 3.2 1 1.7-.8 7.7-.8 7.7 3.3 3.4 7.6 5.8 12.4 6.8 0 0 4.1-4.4 6-4.4 1.8 0 5.7 4.2 5.7 4.2 4.9-1 9.2-3.6 12.5-7.3z"/><circle fill="#E6E6E6" cx="361.6" cy="220.8" r="16.4"/><circle fill="#E6E6E6" cx="361.5" cy="391" r="16.5"/></g><g><circle fill="#1A1A1A" cx="288.3" cy="292.2" r="20.3"/><path fill="#262828" d="M301.6 304.4s-1.1-3.8-.5-4.8c.6-1 4.4-1.9 4.4-1.9.5-1.7.8-3.5.8-5.3 0-1.8-.3-3.5-.8-5.2 0 0-3.8-.9-4.4-2-.6-1.1.5-5 .5-5-2.3-2.6-5.4-4.4-8.8-5.3 0 0-2.9 3.1-4.2 3.1-1.4 0-4.4-3.2-4.4-3.2-3.4.8-6.4 2.5-8.7 4.8 0 0 1.3 4.4.6 5.6-.7 1.2-5.2 2.3-5.2 2.3-.4 1.5-.7 3.2-.7 4.8 0 1.7.3 3.4.7 5 0 0 4.4 1.1 5.1 2.3.7 1.2-.6 5.5-.6 5.5 2.4 2.4 5.4 4.1 8.8 4.8 0 0 2.9-3.1 4.2-3.1 1.3 0 4.1 3 4.1 3 3.7-1 6.8-2.9 9.1-5.4z"/><circle fill="#E6E6E6" cx="288.3" cy="292.2" r="11.7"/></g><g><circle fill="#1A1A1A" cx="288.7" cy="221.1" r="20.3"/><path fill="#262828" d="M302 233.3s-1.1-3.8-.5-4.8c.6-1 4.4-1.9 4.4-1.9.5-1.7.8-3.5.8-5.3 0-1.8-.3-3.5-.8-5.2 0 0-3.8-.9-4.4-2-.6-1.1.5-5 .5-5-2.3-2.6-5.4-4.4-8.8-5.3 0 0-2.9 3.1-4.2 3.1-1.4 0-4.4-3.2-4.4-3.2-3.4.8-6.4 2.5-8.7 4.8 0 0 1.3 4.4.6 5.6-.7 1.2-5.2 2.3-5.2 2.3-.4 1.5-.7 3.2-.7 4.8 0 1.7.3 3.4.7 5 0 0 4.4 1.1 5.1 2.3.7 1.2-.6 5.5-.6 5.5 2.4 2.4 5.4 4.1 8.8 4.8 0 0 2.9-3.1 4.2-3.1 1.3 0 4.1 3 4.1 3 3.7-.9 6.8-2.8 9.1-5.4z"/><circle fill="#E6E6E6" cx="288.7" cy="221.1" r="11.7"/></g><g><path fill="#FFF" d="M288.7 221.1h-11.6c0 6.5 5.2 11.6 11.6 11.6v-11.6zm0 0h11.6c0-6.5-5.2-11.6-11.6-11.6v11.6zM288.3 292h-11.6c0 6.5 5.2 11.6 11.6 11.6V292zm0 0h11.6c0-6.5-5.2-11.6-11.6-11.6V292zM214.9 234.9h-16.5c0 9.1 7.3 16.5 16.5 16.5v-16.5zm0 0h16.5c0-9.1-7.3-16.5-16.5-16.5v16.5zM214.9 387.5h-16.5c0 9.1 7.3 16.5 16.5 16.5v-16.5zm0 0h16.5c0-9.1-7.3-16.5-16.5-16.5v16.5zM361.4 220.9H345c0 9.1 7.3 16.5 16.5 16.5v-16.5zm0 0h16.5c0-9.1-7.3-16.5-16.5-16.5v16.5zM361.5 306.3H345c0 9.1 7.3 16.5 16.5 16.5v-16.5zm0 0H378c0-9.1-7.3-16.5-16.5-16.5v16.5zM361.5 391H345c0 9.1 7.3 16.5 16.5 16.5V391zm0 0H378c0-9.1-7.3-16.5-16.5-16.5V391z" opacity=".5"/></g></svg>