<svg xmlns="http://www.w3.org/2000/svg" viewBox="200 0 560 560" enable-background="new 200 0 560 560"><g><g><path fill="#262828" d="M612.2 508.5h-267.4c-4.6 0-8.5-3.8-8.5-8.5v-439.8c0-4.7 3.8-8.5 8.5-8.5h267.5c4.7 0 8.5 3.8 8.5 8.5v439.8c-.1 4.7-3.9 8.5-8.6 8.5z"/><path fill="#1D1E1E" d="M615.7 508.5h-274.5c-2.8 0-4.9-2.2-4.9-4.9v-147.7c0-2.8 2.2-4.9 4.9-4.9h274.5c2.8 0 4.9 2.2 4.9 4.9v147.8c.1 2.5-2.1 4.8-4.9 4.8z"/></g><g fill="#99613A"><path d="M339.3 513.7h-11.3c-3.5 0-6.4-2.8-6.4-6.4v-454c0-3.5 2.9-6.3 6.4-6.3h11.3c3.5 0 6.4 2.8 6.4 6.3v454c-.1 3.5-2.9 6.4-6.4 6.4z"/><path d="M626.9 513.7h-11.3c-3.5 0-6.3-2.8-6.3-6.4v-454c0-3.5 2.8-6.3 6.3-6.3h11.3c3.5 0 6.3 2.8 6.3 6.3v454c0 3.5-2.9 6.4-6.3 6.4z"/></g><g><g><path stroke="#fff" stroke-miterlimit="10" d="M367.7 350.9h219.4c4.7 0 8.5-3.8 8.5-8.5v-56.4c0-4.6-3.8-8.5-8.5-8.5h-219.4c-4.6 0-8.5 3.8-8.5 8.5v56.5c0 4.6 3.8 8.4 8.5 8.4z" fill="none"/><path fill="#fff" d="M367.7 350.9h7.6v-73.4h-7.6c-4.6 0-8.5 3.8-8.5 8.5v56.5c0 4.6 3.8 8.4 8.5 8.4z"/></g><g><path stroke="#fff" stroke-miterlimit="10" d="M587.1 186.9h-59.6c-4.8 0-7-.4-7-6.4v-85.5c0-4.7-3.8-8-8.5-8h-66.6c-4.6 0-8.6 3.4-8.6 8v85.2c0 5.4-2 6.4-7 6.4h-62c-4.6 0-8.3 3.9-8.3 8.5v73.4c0 4.6 3.6 8.7 8.3 8.7h219.4c4.7 0 8.6-4.1 8.6-8.7v-73.2c-.1-4.5-4-8.4-8.7-8.4z" fill="none"/><path fill="#fff" d="M436.2 95.4v7.6h83.9v-7.6c0-4.7-3.8-8.4-8.5-8.4h-67c-4.6 0-8.4 3.8-8.4 8.4z"/></g></g></g><g><g fill="#1A1A1A"><path d="M568 290.2h5.8v57.6h-5.8z"/><path d="M541.2 290.2h5.8v57.6h-5.8z"/><path d="M514.5 290.2h5.8v57.6h-5.8z"/><path d="M487.8 290.2h5.8v57.6h-5.8z"/><path d="M461.8 290.2h5.8v57.6h-5.8z"/><path d="M434.4 290.2h5.8v57.6h-5.8z"/><path d="M408.4 290.2h5.8v57.6h-5.8z"/><path d="M381.6 290.2h5.8v57.6h-5.8z"/></g><g fill="#E6E6E6"><circle cx="570.9" cy="331" r="8"/><circle cx="544.9" cy="319.8" r="8"/><circle cx="517.5" cy="306.5" r="8"/><circle cx="490.8" cy="313.5" r="8"/><circle cx="464.8" cy="302.2" r="8"/><circle cx="437.3" cy="310" r="8"/><circle cx="411.3" cy="321.2" r="8"/><circle cx="384.6" cy="312" r="8"/></g></g><g><g><circle fill="#B3B3B3" cx="478.6" cy="434.4" r="17.4"/><circle fill="#E6E6E6" cx="478.6" cy="434.4" r="8.6"/></g><g><path fill="#E6E6E6" d="M465.8 190.5h22.3v12.4h-22.3z"/><path fill="#444C4F" d="M467.4 192.8h17v8.6h-17z"/><path fill="#1A1A1A" d="M467.4 191.6h10v9.9h-10z"/></g></g><g><g><circle fill="#1A1A1A" cx="557" cy="146" r="27.4"/><circle fill="#E6E6E6" cx="557.2" cy="146" r="15.9"/></g><g><circle fill="#1A1A1A" cx="478.8" cy="146" r="19.7"/><circle fill="#E6E6E6" cx="478.8" cy="146" r="11.4"/></g><g><circle fill="#1A1A1A" cx="400.4" cy="146" r="27.4"/><circle fill="#E6E6E6" cx="400.1" cy="146" r="15.9"/></g><g><circle fill="#1A1A1A" cx="557.5" cy="234.4" r="19.7"/><circle fill="#E6E6E6" cx="557.5" cy="234.4" r="11.4"/></g><g><circle fill="#1A1A1A" cx="476.6" cy="234.4" r="19.7"/><circle fill="#E6E6E6" cx="476.6" cy="234.4" r="11.4"/></g><g><circle fill="#1A1A1A" cx="400.7" cy="235.3" r="19.7"/><circle fill="#E6E6E6" cx="400.7" cy="234.4" r="11.4"/></g><g fill="#fff"><g opacity=".5"><path d="M557.5 234.4h-11.4c0 6.3 5.1 11.4 11.4 11.4v-11.4zM557.5 234.4h11.4c0-6.3-5.1-11.4-11.4-11.4v11.4z"/></g><g opacity=".5"><path d="M476.6 234.4h-11.4c0 6.3 5.1 11.4 11.4 11.4v-11.4zM476.6 234.4h11.4c0-6.3-5.1-11.4-11.4-11.4v11.4z"/></g><g opacity=".5"><path d="M400.7 234.4h-11.4c0 6.3 5.1 11.4 11.4 11.4v-11.4zM400.7 234.4h11.4c0-6.3-5.1-11.4-11.4-11.4v11.4z"/></g><g opacity=".5"><path d="M557.2 146h-15.9c0 8.8 7.1 15.9 15.9 15.9v-15.9zM557.2 146h15.9c0-8.8-7.1-15.9-15.9-15.9v15.9z"/></g><g opacity=".5"><path d="M478.8 146h-11.4c0 6.3 5.1 11.4 11.4 11.4v-11.4zM478.8 146h11.4c0-6.3-5.1-11.4-11.4-11.4v11.4z"/></g><g opacity=".5"><path d="M400.1 146h-15.9c0 8.8 7.1 15.9 15.9 15.9v-15.9zM400.1 146h15.9c0-8.8-7.1-15.9-15.9-15.9v15.9z"/></g></g></g><g><circle fill="#CEB838" cx="400.1" cy="367.4" r="5.2"/><circle fill="#3EDD58" cx="477.4" cy="367.4" r="5.2"/><circle fill="#E13C67" cx="557" cy="367.4" r="5.2"/></g></svg>