<svg xmlns="http://www.w3.org/2000/svg" viewBox="200 0 560 560" enable-background="new 200 0 560 560"><g><g><path fill="#262828" d="M612.8 508.5h-267.4c-4.6 0-8.5-3.8-8.5-8.5v-439.8c0-4.7 3.8-8.5 8.5-8.5h267.5c4.7 0 8.5 3.8 8.5 8.5v439.8c-.2 4.7-3.9 8.5-8.6 8.5z"/><path fill="#1D1E1E" d="M616.2 508.5h-274.3c-2.8 0-4.9-2.2-4.9-4.9v-147.7c0-2.8 2.2-4.9 4.9-4.9h274.5c2.8 0 4.9 2.2 4.9 4.9v147.8c-.1 2.5-2.3 4.8-5.1 4.8z"/></g><g fill="#99613A"><path d="M339.9 513.7h-11.3c-3.5 0-6.4-2.8-6.4-6.4v-454c0-3.5 2.8-6.3 6.4-6.3h11.3c3.5 0 6.4 2.8 6.4 6.3v454c-.1 3.5-3 6.4-6.4 6.4z"/><path d="M627.5 513.7h-11.3c-3.5 0-6.3-2.8-6.3-6.4v-454c0-3.5 2.9-6.3 6.3-6.3h11.3c3.5 0 6.3 2.8 6.3 6.3v454c0 3.5-2.9 6.4-6.3 6.4z"/></g><g><g><path stroke="#fff" stroke-miterlimit="10" d="M440.2 350.1h-66.5c-4.6 0-8.5-3.8-8.5-8.5v-243.7c0-4.7 3.8-8.4 8.5-8.4h66.6c4.6 0 8.5 3.8 8.5 8.4v243.8c-.1 4.6-3.9 8.4-8.6 8.4z" fill="none"/><path fill="#fff" d="M365.3 108.2v-10.3c0-4.7 3.8-8.4 8.5-8.4h66.6c4.6 0 8.5 3.8 8.5 8.4v10.3h-83.6z"/></g><g><path stroke="#fff" stroke-miterlimit="10" d="M583.1 350.1h-66.6c-4.6 0-8.5-3.8-8.5-8.5v-243.7c0-4.7 3.8-8.4 8.5-8.4h66.6c4.7 0 8.5 3.8 8.5 8.4v243.8c-.1 4.6-3.9 8.4-8.5 8.4z" fill="none"/><path fill="#fff" d="M508 108.2v-10.3c0-4.7 3.8-8.4 8.5-8.4h66.6c4.7 0 8.5 3.8 8.5 8.4v10.3h-83.6z"/></g></g></g><g><g><path fill="#fff" d="M428.6 246.6h-43.2c-.8 0-1.4-.6-1.4-1.4v-16.9c0-.8.6-1.4 1.4-1.4h43.2c.8 0 1.4.6 1.4 1.4v16.9c0 .7-.6 1.4-1.4 1.4z"/><path fill="#E6E6E6" d="M428 246.6h-22l.3-19.7h21.6c.8 0 1.4.6 1.4 1.4v16.9c.1.7-.5 1.4-1.3 1.4z"/></g><g><circle fill="#B3B3B3" cx="550" cy="435" r="17.4"/><circle fill="#E6E6E6" cx="550" cy="435" r="8.6"/></g><g><circle fill="#B3B3B3" cx="407" cy="435" r="17.4"/><circle fill="#E6E6E6" cx="407" cy="435" r="8.6"/></g></g><g><g><circle fill="#1A1A1A" cx="478.4" cy="214.4" r="19.7"/><circle fill="#E6E6E6" cx="478.4" cy="214.4" r="11.4"/></g><g><circle fill="#1A1A1A" cx="478.8" cy="284.8" r="19.7"/><circle fill="#E6E6E6" cx="478.8" cy="284.7" r="11.4"/></g><g><circle fill="#1A1A1A" cx="478.8" cy="145" r="19.7"/><circle fill="#E6E6E6" cx="478.8" cy="144.9" r="11.4"/></g><g><circle fill="#1A1A1A" cx="407.2" cy="161.2" r="27.4"/><circle fill="#E6E6E6" cx="407" cy="161.2" r="15.9"/></g><g><circle fill="#1A1A1A" cx="407.2" cy="309.6" r="27.4"/><circle fill="#E6E6E6" cx="407" cy="309.6" r="16"/></g><g><circle fill="#1A1A1A" cx="549.5" cy="147.5" r="27.4"/><circle fill="#E6E6E6" cx="549.6" cy="147.5" r="15.9"/></g><g><circle fill="#1A1A1A" cx="549.5" cy="230.6" r="27.4"/><circle fill="#E6E6E6" cx="549.6" cy="230.6" r="15.9"/></g><g><circle fill="#1A1A1A" cx="549.5" cy="313" r="27.4"/><circle fill="#E6E6E6" cx="549.6" cy="313" r="16"/></g><g fill="#fff"><g opacity=".5"><path d="M478.8 144.9h-11.4c0 6.3 5.1 11.4 11.4 11.4v-11.4zM478.8 144.9h11.4c0-6.3-5.1-11.4-11.4-11.4v11.4z"/></g><g opacity=".5"><path d="M478.4 214.4h-11.4c0 6.3 5.1 11.4 11.4 11.4v-11.4zM478.4 214.4h11.4c0-6.3-5.1-11.4-11.4-11.4v11.4z"/></g><g opacity=".5"><path d="M478.8 284.7h-11.4c0 6.3 5.1 11.4 11.4 11.4v-11.4zM478.8 284.7h11.4c0-6.3-5.1-11.4-11.4-11.4v11.4z"/></g><g opacity=".5"><path d="M549.6 230.6h-15.9c0 8.8 7.1 15.9 15.9 15.9v-15.9zM549.6 230.6h15.9c0-8.8-7.1-15.9-15.9-15.9v15.9z"/></g><g opacity=".5"><path d="M549.6 313h-15.9c0 8.8 7.1 15.9 15.9 15.9v-15.9zM549.6 313h15.9c0-8.8-7.1-15.9-15.9-15.9v15.9z"/></g><g opacity=".5"><path d="M549.6 147.6h-15.9c0 8.8 7.1 15.9 15.9 15.9v-15.9zM549.6 147.6h15.9c0-8.8-7.1-15.9-15.9-15.9v15.9z"/></g><g opacity=".5"><path d="M407 161.2h-15.9c0 8.8 7.1 15.9 15.9 15.9v-15.9zM407 161.2h15.9c0-8.8-7.1-15.9-15.9-15.9v15.9z"/></g><g opacity=".5"><path d="M407 309.6h-15.9c0 8.8 7.1 15.9 15.9 15.9v-15.9zM407 309.6h15.9c0-8.8-7.1-15.9-15.9-15.9v15.9z"/></g></g></g><g><circle fill="#CEB838" cx="478.6" cy="366.5" r="5.2"/><circle fill="#3EDD58" cx="407.4" cy="366.5" r="5.2"/><circle fill="#3EDD58" cx="550" cy="366.5" r="5.2"/><circle fill="#E13C67" cx="521.2" cy="177.4" r="5.2"/></g></svg>