<svg xmlns="http://www.w3.org/2000/svg" viewBox="0 0 576 720"><path fill="#262828" d="M426.7 594.7h-275c-4.7 0-8.7-3.9-8.7-8.7V133.6c0-4.8 3.9-8.7 8.7-8.7h275.1c4.8 0 8.7 3.9 8.7 8.7V586c-.1 4.8-4 8.7-8.8 8.7z"/><path fill="#1D1E1E" d="M430.3 594.7H147.9c-2.9 0-5-2.3-5-5v-152c0-2.9 2.3-5 5-5h282.3c2.9 0 5 2.3 5 5v152c.2 2.6-2.1 5-4.9 5z"/><g fill="#99613A"><path d="M146 600h-11.6c-3.6 0-6.6-2.9-6.6-6.6v-467c0-3.6 3-6.5 6.6-6.5H146c3.6 0 6.6 2.9 6.6 6.5v467c-.2 3.6-3 6.6-6.6 6.6zM441.8 600h-11.6c-3.6 0-6.5-2.9-6.5-6.6v-467c0-3.6 2.9-6.5 6.5-6.5h11.6c3.6 0 6.5 2.9 6.5 6.5v467c0 3.6-3 6.6-6.5 6.6z"/></g><path fill="none" stroke="#FFF" stroke-miterlimit="10" d="M175.2 432.6h225.7c4.8 0 8.7-3.9 8.7-8.7v-58c0-4.7-3.9-8.7-8.7-8.7H175.2c-4.7 0-8.7 3.9-8.7 8.7V424c-.1 4.7 3.8 8.6 8.7 8.6z"/><path fill="#FFF" d="M175.2 432.6h7.8v-75.5h-7.8c-4.7 0-8.7 3.9-8.7 8.7v58.1c-.1 4.8 3.8 8.7 8.7 8.7z"/><g><path fill="none" stroke="#FFF" stroke-miterlimit="10" d="M400.8 263.9h-61.3c-4.9 0-7.2-.4-7.2-6.6v-87.9c0-4.8-3.9-8.2-8.7-8.2h-68.5c-4.7 0-8.8 3.5-8.8 8.2V257c0 5.6-2.1 6.6-7.2 6.6h-63.8c-4.7 0-8.5 4-8.5 8.7v75.5c0 4.7 3.7 8.9 8.5 8.9H401c4.8 0 8.8-4.2 8.8-8.9v-75.3c-.1-4.6-4.1-8.6-9-8.6z"/><path fill="#FFF" d="M245.6 169.8v7.8h86.3v-7.8c0-4.8-3.9-8.6-8.7-8.6h-68.9c-4.8-.1-8.7 3.8-8.7 8.6z"/></g><g><g fill="#1A1A1A"><path d="M380.8 370.1h6v59.2h-6v-59.2zM353.3 370.1h6v59.2h-6v-59.2zM325.8 370.1h6v59.2h-6v-59.2zM298.3 370.1h6v59.2h-6v-59.2zM271.6 370.1h6v59.2h-6v-59.2zM243.4 370.1h6v59.2h-6v-59.2zM216.7 370.1h6v59.2h-6v-59.2zM189.1 370.1h6v59.2h-6v-59.2z"/></g><g fill="#E6E6E6"><circle cx="383.8" cy="412.1" r="8.2"/><circle cx="357.1" cy="400.6" r="8.2"/><circle cx="328.9" cy="386.9" r="8.2"/><circle cx="301.4" cy="394.1" r="8.2"/><circle cx="274.7" cy="382.5" r="8.2"/><circle cx="246.4" cy="390.5" r="8.2"/><circle cx="219.7" cy="402" r="8.2"/><circle cx="192.2" cy="392.6" r="8.2"/></g></g><g><circle fill="#B3B3B3" cx="288" cy="518.5" r="17.9"/><path opacity=".26" fill="#FFF" d="M288 503.6c8.5 0 15.3 6.9 15.3 15.3 0 8.5-6.9-3.5-15.3-3.5s-15.3 12-15.3 3.5c0-8.4 6.8-15.3 15.3-15.3z"/><circle fill="#E6E6E6" cx="288" cy="518.5" r="8.8"/><g><path fill="#E6E6E6" d="M276.6 267.6h22.9v12.8h-22.9v-12.8z"/><path fill="#444C4F" d="M278.3 269.9h17.5v8.8h-17.5v-8.8z"/><path fill="#1A1A1A" d="M278.3 268.7h10.3v10.2h-10.3v-10.2z"/></g></g><g><circle fill="#1A1A1A" cx="368.5" cy="221.8" r="28.2"/><path fill="#262828" d="M387.5 238.8s-1.6-5.3-.7-6.8c.8-1.5 6.2-2.7 6.2-2.7.7-2.4 1.1-4.9 1.1-7.5 0-2.5-.4-5-1.1-7.3 0 0-5.4-1.3-6.3-2.8-.9-1.5.8-7 .8-7-3.3-3.6-7.5-6.3-12.4-7.5 0 0-4.1 4.3-5.9 4.3-1.9 0-6.2-4.5-6.2-4.5-4.7 1.1-8.9 3.5-12.3 6.8 0 0 1.8 6.1.9 7.8-1 1.7-7.3 3.2-7.3 3.2-.6 2.2-.9 4.5-.9 6.8 0 2.4.4 4.8 1 7 0 0 6.3 1.5 7.3 3.2 1 1.7-.8 7.7-.8 7.7 3.3 3.4 7.6 5.8 12.4 6.8 0 0 4.1-4.4 6-4.4 1.8 0 5.7 4.2 5.7 4.2 4.9-1 9.2-3.6 12.5-7.3z"/><circle fill="#E6E6E6" cx="368.7" cy="221.8" r="16.4"/><circle fill="#1A1A1A" cx="288.1" cy="221.8" r="20.3"/><path fill="#262828" d="M301.2 233.9s-1.1-3.8-.5-4.8c.6-1 4.4-1.9 4.4-1.9.5-1.7.8-3.5.8-5.3 0-1.8-.3-3.5-.8-5.2 0 0-3.8-.9-4.4-2-.6-1.1.5-5 .5-5-2.3-2.6-5.4-4.4-8.8-5.3 0 0-2.9 3.1-4.2 3.1-1.4 0-4.4-3.2-4.4-3.2-3.4.8-6.4 2.5-8.7 4.8 0 0 1.3 4.4.6 5.6-.7 1.2-5.2 2.3-5.2 2.3-.4 1.5-.7 3.2-.7 4.8 0 1.7.3 3.4.7 5 0 0 4.4 1.1 5.1 2.3.7 1.2-.6 5.5-.6 5.5 2.4 2.4 5.4 4.1 8.8 4.8 0 0 2.9-3.1 4.2-3.1 1.3 0 4.1 3 4.1 3 3.6-.9 6.7-2.8 9.1-5.4z"/><circle fill="#E6E6E6" cx="288.1" cy="221.8" r="11.7"/><circle fill="#1A1A1A" cx="207.5" cy="221.8" r="28.2"/><path fill="#262828" d="M225.9 238.8s-1.6-5.3-.7-6.8c.8-1.5 6.2-2.7 6.2-2.7.7-2.4 1.1-4.9 1.1-7.5 0-2.5-.4-5-1.1-7.3 0 0-5.4-1.3-6.3-2.8-.9-1.5.8-7 .8-7-3.3-3.6-7.5-6.3-12.4-7.5 0 0-4.1 4.3-5.9 4.3-1.9 0-6.2-4.5-6.2-4.5-4.7 1.1-8.9 3.5-12.3 6.8 0 0 1.8 6.1.9 7.8-1 1.7-7.3 3.2-7.3 3.2-.6 2.2-.9 4.5-.9 6.8 0 2.4.4 4.8 1 7 0 0 6.3 1.5 7.3 3.2 1 1.7-.8 7.7-.8 7.7 3.3 3.4 7.6 5.8 12.4 6.8 0 0 4.1-4.4 6-4.4 1.8 0 5.7 4.2 5.7 4.2 4.9-1 9.2-3.6 12.5-7.3z"/><circle fill="#E6E6E6" cx="207.2" cy="221.8" r="16.4"/><g><circle fill="#1A1A1A" cx="369.1" cy="312.7" r="20.3"/><path fill="#262828" d="M382.4 324.8s-1.1-3.8-.5-4.8c.6-1 4.4-1.9 4.4-1.9.5-1.7.8-3.5.8-5.3 0-1.8-.3-3.5-.8-5.2 0 0-3.8-.9-4.4-2-.6-1.1.5-5 .5-5-2.3-2.6-5.4-4.4-8.8-5.3 0 0-2.9 3.1-4.2 3.1-1.4 0-4.4-3.2-4.4-3.2-3.4.8-6.4 2.5-8.7 4.8 0 0 1.3 4.4.6 5.6-.7 1.2-5.2 2.3-5.2 2.3-.4 1.5-.7 3.2-.7 4.8 0 1.7.3 3.4.7 5 0 0 4.4 1.1 5.1 2.3.7 1.2-.6 5.5-.6 5.5 2.4 2.4 5.4 4.1 8.8 4.8 0 0 2.9-3.1 4.2-3.1 1.3 0 4.1 3 4.1 3 3.6-.9 6.7-2.8 9.1-5.4z"/><circle fill="#E6E6E6" cx="369.1" cy="312.7" r="11.7"/></g><g><circle fill="#1A1A1A" cx="285.8" cy="312.7" r="20.3"/><path fill="#262828" d="M299.2 324.8s-1.1-3.8-.5-4.8c.6-1 4.4-1.9 4.4-1.9.5-1.7.8-3.5.8-5.3 0-1.8-.3-3.5-.8-5.2 0 0-3.8-.9-4.4-2-.6-1.1.5-5 .5-5-2.3-2.6-5.4-4.4-8.8-5.3 0 0-2.9 3.1-4.2 3.1-1.4 0-4.4-3.2-4.4-3.2-3.4.8-6.4 2.5-8.7 4.8 0 0 1.3 4.4.6 5.6-.7 1.2-5.2 2.3-5.2 2.3-.4 1.5-.7 3.2-.7 4.8 0 1.7.3 3.4.7 5 0 0 4.4 1.1 5.1 2.3.7 1.2-.6 5.5-.6 5.5 2.4 2.4 5.4 4.1 8.8 4.8 0 0 2.9-3.1 4.2-3.1 1.3 0 4.1 3 4.1 3 3.6-.9 6.7-2.8 9.1-5.4z"/><circle fill="#E6E6E6" cx="285.8" cy="312.7" r="11.7"/></g><g><circle fill="#1A1A1A" cx="207.8" cy="313.7" r="20.3"/><path fill="#262828" d="M221.1 325.7s-1.1-3.8-.5-4.8c.6-1 4.4-1.9 4.4-1.9.5-1.7.8-3.5.8-5.3 0-1.8-.3-3.5-.8-5.2 0 0-3.8-.9-4.4-2-.6-1.1.5-5 .5-5-2.3-2.6-5.4-4.4-8.8-5.3 0 0-2.9 3.1-4.2 3.1-1.4 0-4.4-3.2-4.4-3.2-3.4.8-6.4 2.5-8.7 4.8 0 0 1.3 4.4.6 5.6-.7 1.2-5.2 2.3-5.2 2.3-.4 1.5-.7 3.2-.7 4.8 0 1.7.3 3.4.7 5 0 0 4.4 1.1 5.1 2.3.7 1.2-.6 5.5-.6 5.5 2.4 2.4 5.4 4.1 8.8 4.8 0 0 2.9-3.1 4.2-3.1 1.3 0 4.1 3 4.1 3 3.7-.9 6.8-2.8 9.1-5.4z"/><circle fill="#E6E6E6" cx="207.8" cy="312.7" r="11.7"/></g><g><path fill="#FFF" d="M369.1 312.7h-11.7c0 6.5 5.2 11.7 11.7 11.7v-11.7zm0 0h11.7c0-6.5-5.2-11.7-11.7-11.7v11.7zM285.8 312.7h-11.7c0 6.5 5.2 11.7 11.7 11.7v-11.7zm0 0h11.7c0-6.5-5.2-11.7-11.7-11.7v11.7zM207.8 312.7H196c0 6.5 5.2 11.7 11.7 11.7v-11.7zm0 0h11.7c0-6.5-5.2-11.7-11.7-11.7v11.7zM368.7 221.8h-16.4c0 9.1 7.3 16.4 16.4 16.4v-16.4zm0 0h16.4c0-9.1-7.3-16.4-16.4-16.4v16.4zM288.1 221.8h-11.7c0 6.5 5.2 11.7 11.7 11.7v-11.7zm0 0h11.7c0-6.5-5.2-11.7-11.7-11.7v11.7zM207.2 221.8h-16.4c0 9.1 7.3 16.4 16.4 16.4v-16.4zm0 0h16.4c0-9.1-7.3-16.4-16.4-16.4v16.4z" opacity=".5"/></g></g><g><circle fill="#CEB838" cx="207.3" cy="449.5" r="5.3"/><circle fill="#3EDD58" cx="286.8" cy="449.5" r="5.3"/><circle fill="#E13C67" cx="368.7" cy="449.5" r="5.3"/><g fill="#FFF"><path opacity=".26" d="M368.7 445c2.6 0 4.8 2.1 4.8 4.8 0 2.6-2.1.3-4.8.3-2.6 0-4.8 2.3-4.8-.3 0-2.6 2.2-4.8 4.8-4.8zM286.8 445c2.6 0 4.8 2.1 4.8 4.8 0 2.6-2.1.3-4.8.3-2.6 0-4.8 2.3-4.8-.3.1-2.6 2.2-4.8 4.8-4.8zM207.3 445c2.6 0 4.8 2.1 4.8 4.8 0 2.6-2.1.3-4.8.3-2.6 0-4.8 2.3-4.8-.3.1-2.6 2.2-4.8 4.8-4.8z"/></g></g></svg>