<?xml version="1.0" encoding="utf-8"?>
<!-- Generator: Adobe Illustrator 18.0.0, SVG Export Plug-In . SVG Version: 6.00 Build 0)  -->
<!DOCTYPE svg PUBLIC "-//W3C//DTD SVG 1.1//EN" "http://www.w3.org/Graphics/SVG/1.1/DTD/svg11.dtd">
<svg version="1.1" id="MF_105" xmlns="http://www.w3.org/2000/svg" xmlns:xlink="http://www.w3.org/1999/xlink" x="0px" y="0px"
	 viewBox="200 0 560 560" enable-background="new 200 0 560 560" xml:space="preserve">
<g id="MF_Body">
	<g id="Faceplate">
		<path id="Base_Faceplate" fill="#262828" d="M612.2,508.5H344.8c-4.6,0-8.5-3.8-8.5-8.5V60.2c0-4.7,3.8-8.5,8.5-8.5h267.5
			c4.7,0,8.5,3.8,8.5,8.5V500C620.7,504.7,616.9,508.5,612.2,508.5z"/>
		<path id="Faceplate_Shadow" fill="#1D1E1E" d="M615.7,508.5H341.2c-2.8,0-4.9-2.2-4.9-4.9V355.9c0-2.8,2.2-4.9,4.9-4.9h274.5
			c2.8,0,4.9,2.2,4.9,4.9v147.8C620.7,506.2,618.5,508.5,615.7,508.5z"/>
	</g>
	<g id="Wooden_Panels">
		<path id="Left_Wooden_Panel" fill="#99613A" d="M339.3,513.7H328c-3.5,0-6.4-2.8-6.4-6.4v-454c0-3.5,2.9-6.3,6.4-6.3h11.3
			c3.5,0,6.4,2.8,6.4,6.3v454C345.6,510.8,342.8,513.7,339.3,513.7z"/>
		<path id="Right_Wooden_Panel" fill="#99613A" d="M626.9,513.7h-11.3c-3.5,0-6.3-2.8-6.3-6.4v-454c0-3.5,2.8-6.3,6.3-6.3h11.3
			c3.5,0,6.3,2.8,6.3,6.3v454C633.2,510.8,630.3,513.7,626.9,513.7z"/>
	</g>
	<g id="Details">
		<g id="Bottom_Detail">
			<path id="outline_1_" fill="none" stroke="#FFFFFF" stroke-miterlimit="10" d="M367.7,350.9h219.4c4.7,0,8.5-3.8,8.5-8.5V286
				c0-4.6-3.8-8.5-8.5-8.5H367.7c-4.6,0-8.5,3.8-8.5,8.5v56.5C359.2,347.1,363,350.9,367.7,350.9z"/>
			<path id="fill_1_" fill="#FFFFFF" d="M367.7,350.9h7.6v-73.4h-7.6c-4.6,0-8.5,3.8-8.5,8.5v56.5
				C359.2,347.1,363,350.9,367.7,350.9z"/>
		</g>
		<g id="Top_Detail_1_">
			<path id="outline" fill="none" stroke="#FFFFFF" stroke-miterlimit="10" d="M587.1,186.9h-59.6c-4.8,0-7-0.4-7-6.4v-75.2V95
				c0-4.7-3.8-8-8.5-8h-66.6c-4.6,0-8.6,3.4-8.6,8v10.2v75c0,5.4-2,6.4-7,6.4h-62c-4.6,0-8.3,3.9-8.3,8.5v73.4
				c0,4.6,3.6,8.7,8.3,8.7c0,0,164.5,0,219.4,0c4.7,0,8.6-4.1,8.6-8.7v-73.2C595.7,190.8,591.8,186.9,587.1,186.9z"/>
			<path id="fill" fill="#FFFFFF" d="M436.2,95.4v7.6h83.9v-7.6c0-4.7-3.8-8.4-8.5-8.4h-67C440,87,436.2,90.8,436.2,95.4z"/>
		</g>
	</g>
</g>
<g id="Sliders">
	<g id="Slider_Slots">
		<rect id="Slot_8" x="568" y="290.2" fill="#1A1A1A" width="5.8" height="57.6"/>
		<rect id="Slot_7" x="541.2" y="290.2" fill="#1A1A1A" width="5.8" height="57.6"/>
		<rect id="Slot_6" x="514.5" y="290.2" fill="#1A1A1A" width="5.8" height="57.6"/>
		<rect id="Slot_5" x="487.8" y="290.2" fill="#1A1A1A" width="5.8" height="57.6"/>
		<rect id="Slot_4" x="461.8" y="290.2" fill="#1A1A1A" width="5.8" height="57.6"/>
		<rect id="Slot_3" x="434.4" y="290.2" fill="#1A1A1A" width="5.8" height="57.6"/>
		<rect id="Slot_2" x="408.4" y="290.2" fill="#1A1A1A" width="5.8" height="57.6"/>
		<rect id="Slot_1" x="381.6" y="290.2" fill="#1A1A1A" width="5.8" height="57.6"/>
	</g>
	<g id="Slider_Knobs">
		<circle id="knob8" fill="#E6E6E6" cx="570.9" cy="331" r="8"/>
		<circle id="knob7" fill="#E6E6E6" cx="544.9" cy="319.8" r="8"/>
		<circle id="knob6" fill="#E6E6E6" cx="517.5" cy="306.5" r="8"/>
		<circle id="knob5" fill="#E6E6E6" cx="490.8" cy="313.5" r="8"/>
		<circle id="knob4" fill="#E6E6E6" cx="464.8" cy="302.2" r="8"/>
		<circle id="knob3" fill="#E6E6E6" cx="437.3" cy="310" r="8"/>
		<circle id="knob2" fill="#E6E6E6" cx="411.3" cy="321.2" r="8"/>
		<circle id="knob1" fill="#E6E6E6" cx="384.6" cy="312" r="8"/>
	</g>
</g>
<g id="Switches">
	<g id="Toggle_Switch">
		<circle fill="#B3B3B3" cx="478.6" cy="434.4" r="17.4"/>
		<circle fill="#E6E6E6" cx="478.6" cy="434.4" r="8.6"/>
	</g>
	<g id="Small_Slider_Switch">
		<rect x="465.8" y="190.5" fill="#E6E6E6" width="22.3" height="12.4"/>
		<rect x="467.4" y="192.8" fill="#444C4F" width="17" height="8.6"/>
		<rect x="467.4" y="191.6" fill="#1A1A1A" width="10" height="9.9"/>
	</g>
</g>
<g id="Knobs">
	<g id="Top_Right">
		<circle fill="#1A1A1A" cx="557" cy="146" r="27.4"/>
		<circle fill="#E6E6E6" cx="557.2" cy="146" r="15.9"/>
	</g>
	<g id="Top_Center">
		<circle fill="#1A1A1A" cx="478.8" cy="146" r="19.7"/>
		<circle fill="#E6E6E6" cx="478.8" cy="146" r="11.4"/>
	</g>
	<g id="Top_Left">
		<circle fill="#1A1A1A" cx="400.4" cy="146" r="27.4"/>
		<circle fill="#E6E6E6" cx="400.1" cy="146" r="15.9"/>
	</g>
	<g id="Bottom_Right">
		<circle fill="#1A1A1A" cx="557.5" cy="234.4" r="19.7"/>
		<circle fill="#E6E6E6" cx="557.5" cy="234.4" r="11.4"/>
	</g>
	<g id="Bottom_Center">
		<circle fill="#1A1A1A" cx="476.6" cy="234.4" r="19.7"/>
		<circle fill="#E6E6E6" cx="476.6" cy="234.4" r="11.4"/>
	</g>
	<g id="Bottom_Left">
		<circle fill="#1A1A1A" cx="400.7" cy="235.3" r="19.7"/>
		<circle fill="#E6E6E6" cx="400.7" cy="234.4" r="11.4"/>
	</g>
	<g id="Shiney_Bits">
		<g id="Bottom_Right_1_" opacity="0.5">
			<path fill="#FFFFFF" d="M557.5,234.4h-11.4c0,6.3,5.1,11.4,11.4,11.4V234.4z"/>
			<path fill="#FFFFFF" d="M557.5,234.4h11.4c0-6.3-5.1-11.4-11.4-11.4V234.4z"/>
		</g>
		<g id="Bottom_Center_1_" opacity="0.5">
			<path fill="#FFFFFF" d="M476.6,234.4h-11.4c0,6.3,5.1,11.4,11.4,11.4V234.4z"/>
			<path fill="#FFFFFF" d="M476.6,234.4H488c0-6.3-5.1-11.4-11.4-11.4V234.4z"/>
		</g>
		<g id="Bottom_Left_1_" opacity="0.5">
			<path fill="#FFFFFF" d="M400.7,234.4h-11.4c0,6.3,5.1,11.4,11.4,11.4V234.4z"/>
			<path fill="#FFFFFF" d="M400.7,234.4h11.4c0-6.3-5.1-11.4-11.4-11.4V234.4z"/>
		</g>
		<g id="Top_Right_1_" opacity="0.5">
			<path fill="#FFFFFF" d="M557.2,146h-15.9c0,8.8,7.1,15.9,15.9,15.9V146z"/>
			<path fill="#FFFFFF" d="M557.2,146h15.9c0-8.8-7.1-15.9-15.9-15.9V146z"/>
		</g>
		<g id="Top_Center_1_" opacity="0.5">
			<path fill="#FFFFFF" d="M478.8,146h-11.4c0,6.3,5.1,11.4,11.4,11.4V146z"/>
			<path fill="#FFFFFF" d="M478.8,146h11.4c0-6.3-5.1-11.4-11.4-11.4V146z"/>
		</g>
		<g id="Top_Left_1_" opacity="0.5">
			<path fill="#FFFFFF" d="M400.1,146h-15.9c0,8.8,7.1,15.9,15.9,15.9V146z"/>
			<path fill="#FFFFFF" d="M400.1,146H416c0-8.8-7.1-15.9-15.9-15.9V146z"/>
		</g>
	</g>
</g>
<g id="Lights">
	<circle fill="#CEB838" cx="400.1" cy="367.4" r="5.2"/>
	<circle display="none" fill="#E13C67" cx="477.4" cy="367.4" r="5.2"/>
	<circle fill="#3EDD58" cx="477.4" cy="367.4" r="5.2"/>
	<circle fill="#E13C67" cx="557" cy="367.4" r="5.2"/>
</g>
<g id="LED_off_rate" display="none">
	<circle display="inline" fill="#E6E6E6" cx="557" cy="367.4" r="5.2"/>
</g>
</svg>
